<mxfile host="app.diagrams.net" modified="2024-01-18T09:47:44.350Z" agent="Mozilla/5.0 (Windows NT 10.0; Win64; x64) AppleWebKit/537.36 (KHTML, like Gecko) Chrome/120.0.0.0 Safari/537.36" etag="cnW450KnGA11Ap-xvPLt" version="22.1.20" type="github">
  <diagram name="Page-1" id="MdSLyE6v4GZw8rRXEXly">
    <mxGraphModel dx="1024" dy="540" grid="1" gridSize="10" guides="1" tooltips="1" connect="1" arrows="1" fold="1" page="1" pageScale="1" pageWidth="850" pageHeight="1100" math="0" shadow="0">
      <root>
        <mxCell id="0" />
        <mxCell id="1" parent="0" />
        <mxCell id="bd7c89o2SvT_LgplBblb-15" value="" style="rounded=1;arcSize=10;dashed=1;fillColor=none;dashPattern=1 1;strokeWidth=2;strokeColor=#9673a6;" vertex="1" parent="1">
          <mxGeometry x="380.5" y="180" width="509.5" height="480" as="geometry" />
        </mxCell>
        <mxCell id="bd7c89o2SvT_LgplBblb-26" value="" style="rounded=1;arcSize=10;dashed=1;strokeColor=#ff0000;fillColor=none;gradientColor=none;dashPattern=8 4;strokeWidth=2;" vertex="1" parent="1">
          <mxGeometry x="410" y="190" width="370" height="290" as="geometry" />
        </mxCell>
        <mxCell id="WM-I62e_hTdhwf-KRz4h-8" value="" style="rounded=0;whiteSpace=wrap;html=1;fillColor=none;strokeColor=#CC0000;" parent="1" vertex="1">
          <mxGeometry x="360" y="160" width="550" height="520" as="geometry" />
        </mxCell>
        <mxCell id="WM-I62e_hTdhwf-KRz4h-7" value="" style="edgeStyle=orthogonalEdgeStyle;rounded=0;orthogonalLoop=1;jettySize=auto;html=1;" parent="1" source="WM-I62e_hTdhwf-KRz4h-2" target="WM-I62e_hTdhwf-KRz4h-6" edge="1">
          <mxGeometry relative="1" as="geometry" />
        </mxCell>
        <mxCell id="WM-I62e_hTdhwf-KRz4h-2" value="" style="sketch=0;outlineConnect=0;fontColor=#232F3E;gradientColor=none;fillColor=#232F3D;strokeColor=none;dashed=0;verticalLabelPosition=bottom;verticalAlign=top;align=center;html=1;fontSize=12;fontStyle=0;aspect=fixed;pointerEvents=1;shape=mxgraph.aws4.authenticated_user;" parent="1" vertex="1">
          <mxGeometry x="70" y="391" width="58" height="58" as="geometry" />
        </mxCell>
        <mxCell id="WM-I62e_hTdhwf-KRz4h-11" value="" style="edgeStyle=orthogonalEdgeStyle;rounded=0;orthogonalLoop=1;jettySize=auto;html=1;" parent="1" source="WM-I62e_hTdhwf-KRz4h-6" target="WM-I62e_hTdhwf-KRz4h-8" edge="1">
          <mxGeometry relative="1" as="geometry" />
        </mxCell>
        <mxCell id="WM-I62e_hTdhwf-KRz4h-6" value="" style="verticalLabelPosition=bottom;html=1;verticalAlign=top;align=center;strokeColor=none;fillColor=#00BEF2;shape=mxgraph.azure.laptop;pointerEvents=1;" parent="1" vertex="1">
          <mxGeometry x="190" y="385" width="100" height="70" as="geometry" />
        </mxCell>
        <mxCell id="WM-I62e_hTdhwf-KRz4h-10" value="" style="outlineConnect=0;dashed=0;verticalLabelPosition=bottom;verticalAlign=top;align=center;html=1;shape=mxgraph.aws3.cloud_2;fillColor=#F58534;gradientColor=none;" parent="1" vertex="1">
          <mxGeometry x="360" y="160" width="50" height="40" as="geometry" />
        </mxCell>
        <mxCell id="WM-I62e_hTdhwf-KRz4h-12" value="" style="rounded=1;arcSize=10;dashed=0;fillColor=none;gradientColor=none;strokeWidth=2;" parent="1" vertex="1">
          <mxGeometry x="425" y="191" width="335" height="269" as="geometry" />
        </mxCell>
        <mxCell id="WM-I62e_hTdhwf-KRz4h-13" value="" style="dashed=0;html=1;shape=mxgraph.aws3.virtual_private_cloud;fillColor=#F58536;gradientColor=none;dashed=0;" parent="1" vertex="1">
          <mxGeometry x="445" y="171" width="52" height="36" as="geometry" />
        </mxCell>
        <mxCell id="WM-I62e_hTdhwf-KRz4h-14" value="" style="shape=image;verticalLabelPosition=bottom;labelBackgroundColor=default;verticalAlign=top;aspect=fixed;imageAspect=0;image=data:image/png,iVBORw0KGgoAAAANSUhEUgAAAPIAAADbCAYAAABXy8xaAAAAAXNSR0IArs4c6QAAAARnQU1BAACxjwv8YQUAAAAJcEhZcwAADsMAAA7DAcdvqGQAAHf9SURBVHhe7b1nk2RJdp55QovUmVVZsvX0zPQoKIIgCC5B9Y00I2n8yn9AmvELfgD/zNqa7ZqRZlxw18A1AwECg8Fgema6Z7qndVWXlqlF6Ih9n+PXI25ERmZlVmdVpYg3y+P69evXxfHz+jnu90ZU5sGDBz2b4JWgZ13rZUK8m+l6Cn8czbKWsUIIvbySsuQyI1+m4/l71lGcvNyrqP6yykeSB5Vx3Oj1qG+Ck4bjH+kJDkQkGWSFwyEOMkrRcGRyCgwL54GifXIPbo65FTiGeLzswXNNcF4wIfJLQEZWLNPr9kOW0CUtEC6Qj6EQiWV9e5YXgTmKosrg1jfbViYFrLACZWYVcmJ6OmQnJD6XmBD5JSC4z05Z/cOWhqOf+0U5xe4SaziSI24yV7IibdbaigcSZziPk4FPEMmEkCaw4hOcL0yI/FIg8jpxJW65zr2sguJOaAXWsh6TRc1gqTtYWgUsbq8jO912MjupdR7ILevuIZaShITQHCc4P5hsdr0kQLeM1r6FQtG6Immn09YRIkI8fcrC9pTeU1qn3bR8PmeFIvOs2J2slB1u0QWRPO6Udf1AXiaK9Nycjh8PJptdJxMTIr8EQGKEDJHzOVljkbXblZusY07XsM/WbdnW2prVtrdsbmbaKpWyFUoFcVV54TlBed0Gq5yuCOXlitjdxF0Plh3yBoJPiHx+MCHyS0CfyATWtqx1ReJsRy6yLLO1GtbY3rCn9+/YztqqvfXadZudm7VCuWy9QsE6+bx1c3l3ybsicUeBVXMnITFpTmStrflzC98Px4sJkU8mJkR+iciwvpXlLcrK5nVsbm3a9tPHtnr/tt369CPr7m7arNzpN65csrn5BSvPzltu/rLZ9JxlqtOWK1WskytYK5u1pgjchtSKtxUikfNQ2TfMvhmJw+TDlBCnoYAJkU8mJkR+JiSeQ0noYOKwOZXttUXgpjU2V2175aGt3rttGw/v2taje7b96K5VZWeXpkt2/cK8VaemLV+dsczCVcvNXbDC7KIVpmbNylXrlsrWKZSsJSvdyhIoPada8vrMqR5IHdsDEQcYEBGSciW56u75oKPECOFqWMs7JkQ+kZgQ+Rng8U5Q6b7K9xFSIYosoIhADl//6h7OQ5pSiXfblus2rKhw/+ZndvM3H9rDm1/Y9pN71t1asdls1xbKWbswVbLLC9NWLBatly9Zb3rRcjMXrCgil+YWLDc9bxnC1Lx1ihWRuaggK+3PnsObYGHTi7YTS1lUtSuJKU7byMcEkLSdP9/uVtBxkHtAZN9VT+ITnBwc/27IKcfoyxtsLwVrmkpLQnixA1vYs6KsYkXrWc7btZof/Zq4UJTlhC7WlkXutOzp3Vv22a9+bhsicWt7zXqNbRGkpjxNK+TaViplrFTsWCmzY8XaPcuufmqd+x9Y/fYvrX7319Z+8Lll1+5ZaWfNplp1m+l2rNzumDVaqqJnLZG0JfeaTTGnJZORCAiRw8QEApF7XU0AXXbSFXqK97QO17303DfSpCEdhXa2pzV5eKU0ljDBycGEyHswUNNgycJ5sFmDgOA8SNmd5CJort2wsmzjVFaErW9ab/uprO1jKzS3rNzZtZI1LJcTGdp1a+9sWre2I7JDXp4q87JHW9ZbE4Cscz7Tlm2tW6mzbaXmquV3H1lv/a61Ht+02v0vbOv2p7atUL/7hdnTO1aurdm0yi/3Gu6+sxY3tclEcrFVvVBwi6z+JEc4Hex1DJqSmAC8h4Pep8kbjxOcLEyIPIS9aopKj0d42JOT1YPIJhJnWjtWaG1bsb5u9Uc3rHbvc2s8/MJ6Kzctv/1QhFyXha5ZQSRlwyvbEYnlwpYKWte6SxufGWMPsfSQuWVFkbOgiSCncnubj6355Jbt3v3Mtm99bDu3fm2tu59aYe22TTefWqW1Juu8FfJ36rL0TVnhQGbvH9U4gwO5gdfsZFXMOxx6zaeHmEw8OU5wsnD218i+FiSgjft1lfRwbVyWqMxpYK+yulDI5WSNm5aTi1vs7dr2wzv26OvP7eYnH1qlqDXv0rxVKlWbnZu3mQU2rGbsFz97397/yY+tuSvSi6wVWemiXOu5cs6W56bs2vKCVfKaZWVVeZPLrSdurtbBvOfVzWodzPo5yzq6aIVS1Yrzy1ZYvGrdhevWri5apzynxlXlFhfkEstlJvi8zRYXJXoPlF5SCOtkaghyUk7vcAxMLAGTNfLJxDkgcsrpkIKOx3B6JG1wLsN5dDQHaUGhvfRmzZqbT+3p15/Y+r0vbev+Ddt4eMsuzk/Z9SsXrVwqWaFctUJl2rLVefvksy/s449+Y61G3alZxpWW1Q1ErtprInI5L5p1eVqM5YxI1q6kkog3oInEN6zK02bTS2Yicm/usmVmLlpuatF6xSnr5qsKFZEaQgfShnLCpAChSYv9y6jDgawhV0CSNmjMBCcIEyI7EEFKDIqiwHHH179RhHsK4XUMm2AhX7fT1Vp32zZliX/+l/+PbWr9alobV7o79saVJXvj6iUrFwvW1q2NrkhUmrWb9x7ZzVta77Z5f7on97ojIrdsTmYYIr9+cU4WWXX3+KLEXrDWbevenFyCHI+edM6udStftq4InJ27ZLm5ZVV1ybJTC5apzJspdLDQuZIstNqjmjush7NMBLLGeC4c6ZQHZBDkMMHJR0rLzz7cso4J+lQIVsmXj/rgMRLrSL5MWBTRcIELnZrlmluWbWitq/Vqvrlh5S4uddN6rZptr6/a9uamNeo1hbp1mkpvN61V27Runfu2rLu7bpnGtojbdGuMjaUJ3gwHsbCmZcIYBx5n5fN5GeTEwuqYFanzIn5254l1n3ypdfOvrHHrfWvf+aXZo99YcfOWVepPraq1c5FOy6QzGWTUvqwCj8ZoU44yVK9v4DFxTXAqcK4s8n6K6ctoB/YnWKWcrDdKndM6Na81sLW1/l19bJsK7brWtrmsVUplK2p92mk1bfXhffvx//wz21m5b6XurgjesHeuX7R3ri27tWWGYI3aypbtzqNVu/1wxZodaAwxteRVXVjkS3MVe315xqpaN2e6Wh/L4tKuAbDUSVRIHN7+zrL8A7nLKjenRbYscEZr5czUkqy03O3pS9abXjaTpbbyrCqtqFmhzzSCoz+y8kA8CS6R0AqkA8LnBCcFEyILgchSVpRaJMBlzUPkdt0yzW25zuu2u/LAnty9YSv3v7bO7obNVEo2PzNrpUpV3nbXNtZW7Zfv/8xq2+uyeG0rybpB4rcV2HXGNYcQbdl2J7JCvZNzmwwrsIDz7lpX7I2L01bNi/ZaI3dxfVO0CWvzSK0I4gpiON9XxsaHh1k5a+e0Ns5PW6eyYL3qomWnL1pp6ZpVFUqzF63VKypv2BAL724Hd7ujiYo473J7GwVIPPq1jAlOBiZEFoI101VFWnI581LiohbG2cam9XZWbOP+Dfv5X8naPr5txdaOzZdNhJu2xdlpt46dds82tnft48+/tHpD7mkON7drb12/bG9fX5Z1lksuUlIL69O7IjFk3u1orSrXGKsHkaNFfjMhMm+DBSKrD/BU7Q+B7ylH11cth9xupsM5j5Kw/m2R0wO728UpkbNsPa2jc5UZK2kdXVq4bpnZ161bXrJuQX1hLa/6eOWzLYsOmXmfmy23SGMt3f0ll4FUJzgJONvj4aZ2NKQRSJCTC8uXGPKdhvW0nrXdNcvWVi27u2LdjYfWWL1rtSd3rbn20DK7q1ZqbVmlu631po5NWeD6qhW0bq7wfFgTQA5iyqqzls2KCCHwQz6BgP7yhx9FRgiqdgaXNdhabyW87IMTroTgz62d0CpDlj6UF3a4PSRWm/L9hwnk5mfqG5avrVhh97Fl17629oNPbffWr2337qfWeHjDumv3LLv91PKs/Vu7uid5/qxy+MPKh9c3JziJOLtEHkdiN73EE/BMVFaPFzPYgOpsPra6lLr56EvrPvnKMk9vWnfla1fyUmvbynKXi9aycqYj0iZB5yVerdQ6uJzPWDEvq8VuskgcjzFAbgQeflcreAehZfpzMoevIDpdUs0EbnHl7oergaie7p8hDrjii24d+eR5MGTOtuUVaJ2PR5Gvr2mCemANf2nlM2s8+Mxaj8KLK9mN+5bbfWo55WN/gMkgBJWsCWKCk4kz7yE5d5M4cBVXAr/G0W23rd2omdW3bev+Tbv74Y/t87/8L/b1//ov9vT9/9d2Pvtra9/50DKrX/sGFhtSvQ47ypoDxMN2BzeW7wjnVU8IfANJ9tctbx5Ln+wCUy+NSWymighr39Ae/+yHAU2TMx6bZRW4zCygUWMt39XEwNcYu+xe8+KHAseu3Pee0kJ71Bq5y4V8UROL2sakonN+fKTE65xb980ef6p+/sIaN3/mu929x1+J6I9lxWtWVLUFlhs6EsIkNMFJw9kncnJMw/kgZc5pDSgDat3mrm0+vmuPbnxs23exTl/KOt2w7Ppty8hyZbROLnTqbtlCgaKXyBd3fP2JM5tECTnJE75YkTxzxhWWNcOgcTtrYofPMok1ToVIlRD1wvycmsL9SSDFN6SSoHbwYmf4oYEkKM6d/DpJ/9tY+uP3wPAieJe72Fix3PYDeR63rc673I/viMTb/gUP8kFgfkOMkih1gpOHM0/k8UCx5frmZKlE5l6raTvrT2394V1rb69YlnViQ2vK5qavLa22ZTkptVtW1+PIpEhkhcA6LgY4awmRxIEAns0RIpG4foxl6EiZ+6FfhvqQfkzE+YDESZqXs7csamBiKkHmbt0K7W3fG2huPLHauqxxq+FeBet6fq3TS9VxfGkTvGqcSyL3pKDNZtNfiIBgkJofxGu1W9ZqtazDN4YS8NtapAdbeLxIDO0IIlWCJX1Z8I05uemAHwWME09oQ0Lg/sQwwUnDuSQyClkoFMLbUYq70rriSkl1YJeZa/kca0q5pCOEG0/AoyKSYuBO89fHsdTxbDBBxUkKnoYWBJmEdAVvXqptE5w4nFMiZ/0XOHIiqystO1eCPzJiZ5mXQuR28x4zgQ0i1+WR8NyAuJG8Ovqfp4XLz48jtkr19eewpHImNre8nk4a1pi/CU4yzqlrLTe61bY2brTca750ACJhu52OtZuJm90JJEexufbyFXq0VsV5yWVsOFrr3OYmfadcJrgwiamsFOB1n+ATnEgMj9i5AQrc9XWx25yUMjt0jpV297J/TfDMIRqBm31k9fabQmG8ZOF/+xUULXViwY8L1BkKpp+pNbFXwdWQHvLEeuM9Sd4JTgzOKZETJErrSMdfCgakiD94F8gl0JbIHT/GhPSFb4p0nUm9fegcYicTWbDGSfqevBOcBJwjIksBsX4K/l+sOHkSi5MQKRxfMFR3UlswsnsQriYvRSbnLwuD+kLdQpSVjhPX+uTiXBC57516QCkTNSXddTNeHUaiv8cDryupxwsO8b411tFDONOn53yJCDWnEVtzbDKY4IXh3FhkJ7MTKChoIA7x5FrI1gfKG8PxIJBiKOwhcTgeT8VHKMDrpC2jiGnjrk1wknBOiIwiBpJ0PeiMkFxJI/Jo6MJopm8IigtfNRxXdCC0O9ZJG4dB67yF+4BrDOtBedI45s5N8EpwdonctzLpAMIx0CWmDeDqn05W/LCUeBYo1kOqXX1LzDlxVebxPaAVsSUHteiorR20pS+vfvsmOC044xZ5VCFjXLYQZXVuJGlH1f8jIrYEogZQfwjBnU6Onq6D5+McJAnOcr9wzEjqjW1KHz1McNJxLl3ryAUsXyTRy0NsS3CvR2t2C+0hmWxeKEJbng3yjF8ITHAycE6IDKBtjCWhT6SYEgHTE7b3MS7teTBoxzfDcbQlIrYoyiEJPpEQItLxCU4SzjyR91P3UQ91b750CvH9Skrglw+n6M8o6ZAY16bnLTneF4mbCn6JOHje8id40Tj7RI66eAjs9WQRD+FZJSRKn4ZXHN3RPQX75XG/tuFfovCgegl76le8PwtxjHlG8x0G5D/sPUfJO8HLBqN/9pEQZi9RE9Ukfcy1vYjKvJ9Cx4JSBSYzSf9OJ2ESiCfE9aOnJ0hu76N/H0jlm2AC4VwQOVLAQ4ogzrHAs0OCnNHyjd4VC6KCVCWOkBbuSogbzxIC87fntohU/hAmmGAY58MiTzDBGce5JfI4N3uAMZbPreI+OLSRTKz1wZW/YiRt3Nc9mOAk4lwSOdJ0P/65mxuDf+MnhP7XBxIdd3VXUv+BUvq7ywn8Dn1QDCU8i8Tkf7k89xpDVMcQowFJ4KuM/esTnFSceSKPkuJgokiR+d8NMxILIVkP82uUvPscAn9S7r6e68yV3VM9kbjTfk/lgRB8Jj9P7fFR+HWOyjPu+nEirM7pt+JUpg++rhh/VCH0SdCh/+MDE5w4oC9nHpEM4wjsugthCCFpAE/wHEQcWKcQXLcTKOYnQfnTVyh4T7mpy2Df+l8KYv9iGBxCv+hTbHIqzwQnCueCyGhhJArHiDSBRq8BToeSPKGfm5QUYu5xrzLGa/vDSzs4ywvGaH9Gke73s/JO8LJxPog8wQRnHOeXyAdav3FW58VbIl+rHrQ7/sIhobhbEo8TnBacWyLvT5dI2Bgi9r/jaBguZ7TUUGtIPa4aD41I4qEwwWnAuSMy5GDHeF8MWUTPnRyPCd1gdX1tPq4d/jyL6+G/WJ1ggsPgTBPZycIxFdLopyf59sfBV4+CQUmK9UmbHNP1OMlJ97MXAOpKhwlOM84ukRMC9FV1HCFIU3A1PpAwB158DvRb5SSOf8dezUHwumI7JjjtOLdr5H0xxHjik1/GmODkY0LkPYC0IYRXPyKU5j744PowonUbt6aO156Fw+abYIJhTIg8FgMSB1qlyRuujUe8I03GGE+nPQOsmSeY4AiYEHkIkaiRdpx3JST+t36lETwdhLwhZT8rHNPjNc7H5U0j5j8ozwQTDGNC5AR9+sDNPkn9JCC61Mm71H2LncoSSoh4FhH7NY6EFNwyj6RNMMEYTIicQrS4o1+JCPHRMKDYMJkPgeRxU6zNg6dxMWLk+gQTHIAJkQ8EzJrsWk9w8jEh8r5IvlOcnKXJPN4CK6enj7Og49ImmOD4cA6I/DzWNLUGDgnCcNq+ZO6HBP0d6FTaBBMcM84JkfeybtxvSu8HXzsn+cffM+4K54g3da1P6gkmOF6cL9f6sESKvE/x3+/kPJU2BE+PhOVD8XTe9PU4MyjR/5+n5Bgvh8x7Q/wL5xNMMMA5InIkWZ8tLxYJ17y2sbwb/C8U/IdtA5oqLRI9/kduSej/h3PEvYwJJgg4Xxb5RYIfrUuizkUdomO9H/rEhL7y9cP/whgJO3633HOrUM832VGfIMGZJ7IrfXJMo/+DkCJgJ5Pz0M5yzFrXj3mdK/i1rAcvw4mHpYwkCgU79/wYNsXCtQR+gQD54rVwg58nZbplVuC/fg1BqUkI5E2VEa21kzkGziM0sSRFj4as2sjbav02SAZd+mh5laL++tU4DRE4H97Dn+Bk4cwSOaqcqyvKGk6HVNEVWKRtZQrWypWsnVcQeZsib0MKXZdiNzJFa+YKygeRuRsCdU2nCuHL//wIAIIMQere49FVQKCL/sSgwf95nAqePhzvyjp3VEBbBQ6ROblrEOMe6uoopMicsD78hSp9goHASSBuaidOPS+h+sSlvrYlh55CRnLgp4Ez3iNCTkXSQ0qc4KSBkTlVCAop5X1G6Cv1GLhyuz7K+kqBm5C4PGPdqQVrFsq2I9asNbu2KiZtWtHqubJ1RGb+c8RupqP7OlYs5G2qWra8JgLonNPFXFf2TCHbbwPE1D0ipgeISqrSCIP2ear/RWvcVv52jqNqSwgd7klD9UDiTEttIEBowGdygxeNzNTbruhI+xQynbb12m1rdzu60zR5FayRLVu3MGv56oKVytNW0MQWpqich14v5zWqNJ1PcJJw6ogcNPOw2C+vLBXWWEfcyGx5yuYuXbOr77xnl95+z6avvGn5xStWWn7TCheuW2b6onXyIrNIzw/Xd1Ruq92yZrMpo4aFw24FazwgcZhKqCMEeCUSEJwIMeiz38wQ6VvhJD7oRcgfEKwtF926xpo8Prgj3BOtKhOXrGy2aNli1XKVWesRphctN3/JikvXrXLhdassXrNceV75yrpH3oi725CYXqbbMMFJwSkk8jcEeui6qA9IJYtarEzZ0pXX7M33fmRv/vD3bfnd37bp69+1mTfes+qVb1lh4arc7mlZxpIsqxRb1rfZ7lgjIbIXidWT2mfcfWatizUWtZy8war1dB9kcrFj3jUBhF/N9AYNjp4W3XbKDvlkpJM0TT6eTp4kn/4AZBZdFSOAUD+eR1ttb4mYbXkYvdKs2fQFs7nLll16zQrLb1nlyrtWvfyOlZdet0x5wbr5qu5TfwlJqekpYoKTg/NHZAGVj//9ST6ft3K5bPOLF+zS6+/amz/6I7v6o//NFr79B1a59p4VpeA5WahORW63FLspV7stxc4WSlYslS0nokaLCIG7CljsYFWhNoQteMj4ETeVFnBfCFllHgS56CJoXvGc4nkPxHXN83Jd93VlWSEy5XUpV2vaSHCvNdDON7G03u0Wy1bXRLTVK9p6VyE7bbuVZcteUh+v/ciKV39o5avfE6Hfscys+iuL3M5NWStTCtZY5TAhBMseJo0JTg7OCZEh2sCWwLtu4v7mslL+HBs5YafaKnNWmL9spQuvWWbmsqzxdZu5/LYtvfFduZ2vWVuWDDJsK9QyZdvNVXwN3RRJuD+6nzi6wUZzDplFOCexiCDCDa4FUrMW5Y/tJV9vO5nVPnfdCboTknpXwn2BVGq7W3uOnINkbS7isevelCu9m6lYLT9j9cqS9RZlga9+x8pv/cgq8jwgb3bhNetMXxKBF61TmrGO+tXB+3DyUq9a7BNWDBOcJKARZxxR6ZKjDv6fk3UDkVkrk9budKzealtDlq+br1imMi8rNmM5uZ/Tl960q+/+yJbf+YG7nu2pi1aTwteqF6w1d8Xack+700uu/D1ZbKyjiUB9y4UFRdS+PlW6Jg9f0UI2z6MgwmQIyoflxerGPeMcRKY0tZOS+AwplEMI61cPuuw73srTUl1s5DXyU9YozllLRO0taf1/9btWelMkfuOHVrj4tuXmrlqvumStwoy15HWEJURezaYuldrrKKgWhVDLBCcNmQcPHkRNPxWIG0nfDHI5UUoRi0dITmwPg7JdhyGOlDjTaVmmuWvt7TWrrT+0p3e/tKli1pbm52xqZta69Yat3r1rH/zl/7SdJw+Uv2aFUs+uXb1or1++aFPS/KxYCDE6csdv3H1gX966b62OCC9Lih0uZDM2O1Wwi3Nle315yip51dtrOYkhbiCwynASEw9nXPbQdYde3oVcexG4Le+ggVssAtvUBStqeZCdkSs9c8EKsxd9oytTrGr+KLg3EiwvNFX5ikPXZPrwyYE2hICMYgvGUxpv4HkRlzwTHA3ndHJNLKQQSQywzkEHA0FQ5g4bPVjo6rxVLl63xdffs0vv/o7Nv6k15bXvWP7Kt6wjV7UhK12X69rIVqxlsoIdkYF1K4+2LG8trWlbconbIklTNTQ0aTRVT1tx1tJOoD4DwjG6slylNeGMC2p9oWgZrdN7+aJ1c+H5L9a3Luvb0vq2Jy+hePENK19526pXv+WhfOUdy198U9euWksWuC4L3JAX0eT5sYjPSzEQOngJtCJMG8G1Rxreyv7VCU4Ozq2X5C61MGoBoqI6fVBqKXfbCr7J1SlMW04WbfbyWza1/IZlRZZO9aI1ywtWL8kV17XeFGvMaRG1IGKUzOSqtrSWbojcTSwkpJPF5NktJPa3xuQVdJg4CLj24i3OQcpBELC/kJ6gYcsVFCByCJ1CxdrFWWuqPe15re+17i1f/55NvfY9q17/tpW0PMgtXDVjCVCelRstwvvavqD2iMTyCgKR5fqr/EBhJBG9AYUwi6TCBCcFuT/5kz/5z0n8VAD1Om641UnU1v3CRJGju8maFrc4kr8jV7vVlkUVE31NzHNZWch2VytTudyWY51rNjszbzPTC2YiTS9fNitVrLowZ+s72/ZkbV2uNevosNvMmr0o97pazNl0peDWz3rtsCuuap1Yao97CYo3xfymsvAc3HJ566oO1um5y+9a9tI7lr3wjhUvvGEZreF7Tt4568izYP2LVxDX5vTd18IKUQp+dELHoDq4Tr7kvngYGw6B+LgODHbDuf34x/c84PSskdVKtw3eWj/RZ/iLCDrE55ApSyGqCXkGsUAaP3UFjySOziQEzopkWa1Ds13Z0nZdDMKeZsShitalWvtqDf30/ldWW7lvjZWHtqs182w+axfmZm12ft6yeZVT6Fl5Nmcff/yhffjLD2x3R0TVGrkosuRaDZsr5+zSXEVr5GlfI+d6DSvkVIv3FTcf7yC4wE0mAFnhQmnKStVp323vzWjtK2+hXV3Q2nhKbeN1y7wmIq3F5QnwLNmDkyb03CWif/F5Np8cqS8gyiwRUNg2Hwrhnv3A1eReIRAYhJELk0ZsDwmkRud+gsPiFBEZEmPpEgXjeW02vCmMOmTCjkxQBF2DeBgSLF1XaaGTOZECZoigvKaoRFSI95Y8g4poKyWuE4MyK1H/8rKyvbZWtQo4oipeySKCrHFO1zKZjtVra2bNHettb9jWnbuWqdWsnM/bxUvLIhxkki0tte2D939iv/jJ31htu245NV90s7wmh7lSVkRms2tGRKZ9LdWjDMmkwvPrjuprY1nlsue0bi/NLNrU3AXLTS/KBbhg2cVr1pB1bmh93vG+u3TUUfqOZcXChsnKO8any3YQ93TlDTIbnhZ5Tp6R4Cihx0agjsiin3kPQrlk8He8dfR7k5hPKkn/PCvjklyd4PA4RUQWibuyXF0RAgWQMrXyTVcsVxI2l9odEVcrWixfqWD5Qtbq9ZrVW025sVKObNmKparSS9ZqNi3Twep1raB7KAMCh288oVzSKhQ8USoZVCm58imvEx84IfhyQdDkHsTjUY1cb1UcyteVfEGuMpOLvw+9az/7m7+wn/71X1q3UbNMoy4SN4xXTRbKIvJsyd68PG9lLYEzqgteUQpf7GBTqluatdzUkpWWrll+9pI/HiuyNte6nHVyV1aYR0dOEG+VS8fbyh+y67vICXmJBzJ7agJkEEjMZhzwl13Uv5w8jZzY22zsWl5Hn+R8xgiqxH3EvEavgxYoiKRhigxLgjBhBtd9QuRvBkzOKYOanCggQ+3fFtJpeBVSEVdYLshaJKTjBcOi8uUVeHyFlQ65QjkDBEtBejiinMrrO09a/0JSruiSB79H5em6Tye8QJETkQrTvunVk4VszyxZvTxrdRGwXpyx3cyUJqBZmeF5kY43p/LWUHva9IOFtb83oolK6/KWrGdd5G3pXptd9l1oXhmtXv+OVa591/KXvmW9C29ZY/a61arLVivOJ7vm9FgESQIyw3sILQ6EpWsx9F/00IXwx1n4i6Ry26l+MlGZJqpep6lM6rXuYWlB0X5fcgTxnIuellQcyw2JwDNN8A1wComM8rid0PBjGUPcSSBLkc3jOitFytZtao0pMld0XpWyyeDJAuseuceulIliMRG4AhJcuwYhKDGuNwFSBzUE5OAzHIlhWbDoed8NbsgNbojYhDohUzY525adumAzy69ZZX5Z7rHWtoWyJgAmAbnDcoH9ObDub8nCNksL1p25bHkRdkoEnnn9PT8WLr5lmYXr/nJKvTRntfy01UVi3O9AYreBatWAwGnCjKaECTFMJiEEuRLkp3gIK/SWvKKG7xPk8DJ0jz/C8zKCtALCkbv7m4ZKS8d9NnS47Y4CneA5cKrWyKyPedeYmb2baVsn17KOx1GKgiuDv+PUlbKxllWoSinZ+eULxNjmpnK0VBbPdL3jXHKFjUoX3pJCKX1jRiE4fgqcc1fUP0dUSpoYSaO48qbhKq7JoKPJZWv1sa0/uWe7qw/t6Z0vbe3eV5arrVilV7fFcsbeuLxgU1PT/tJGduGa5WZF5JmLVp7VOrg8Ixd6SmFGk0XZ3e1ggcPGVZ6dbtXj9fWJovpT8TTC5JVGOl/oOx5JOMoj6WGJkbkOmqhYsrR0ntNk5Gtwvz+UyN1szGmIXErerihDv04MWTPxhPvCCz9cH27VBAfjFO5aoxJyZ1mvZZssnaUlKEE2rNekNdmWLEZtxzqb67b75IGVczmbnpmx0sy81pJyPXNFa2pC8I0tHi2hUFJ01LVPTA/6dMUjFUVOUsMlYZAPQrBBFDFKZDqA2uLWt7W2bO1uWXN71bafPrCtx3ds+/Eta20+tZLI/OblJVtcXrappSuW4fXJ8oL15JZnimX1ueQbXp1cWVabFzl4Xp330ploIHJ4QKWUVHuGiZxqmzrFWSB0oFjolc4SAudUZl7r/4yscGNzzWq729Zqt600NWuF8pTlS1XfQWd3PNwBOXWMk6JKo7zgmse6h2rqnwUvIOaZ4LA4NUQO7htDjWJA5Y4UpcVmrImn/kX5gsidlyvd3Nqw1vqK1UXiR198YjOlgi2LGHOXrlhhbkl+9qy1RAi+TM8a1V+IcKuA9RgomCu/ToOCJanS+FHrFq1aOn0vkQVd9zx8qZ81Zqtu1ty15s6aPb1307ae3rdebcuuXlywi1eualksElcWRVZZ3p48CZlBVulsfvnXKRUgDxaN1iGZrBM5oYa3J7QpNI2P2C6O5AneCNfir6Agg57aiAWFxLjSvdqmNbae2vr9O7azsaouNG1h6aLNLS7b9PwFy5Sm/Vm5TzT8EIPLlMddwdoiD6csVXp1qmOPO8DFoYQJDokTS2Qf+KB9Hm93wqMU3mhqaWZvo2D5nomjVsLNFhnyzR1rb63ard98bKt3blpr5ZHNZZq2NFOx+fk5K8g1rSxesvKFq1ZYumwtrStrGa1d5aLyxlVPipdldxt9Ut3ZXLDQaUurkyQEJE0U9hejb8JFKJvbQPrXxdXU2ltLgU6zZj15EmzQFbTOLxQKls+LrG5t3R/wAB18t1chPH9N2pjAHw2p+HSLQc+9FhCP5OOrFQqQVyRmnc7jObyG2s6mCNy0Yi+Q+P5Xv7E7n/3KNu9/bVOS+4XZKVuUTIuyyFjmpatvaZJc1iS5aL3qBWvm5PnQds2yvLWm4fO2e/3Iw12YBE5ewgTPixNtkdNWDSVwxeX1RieyCJDrWikrt6+5ZWu3PrMtWbXNB3e05rxrDa1D8/UNe222YBfmKjY7MyX3tCIyX7Di/LLWnpdNvquUbtE6Fd560vVcSevpvKQiZXbyBeKEAKFJCxShZZyKAn5Gjv2UMaydA+jSuFxO01R/iUNT3333daOnhntVcfiuc0jzNnHSb09ITWNAZKD1tLvNst5a81I3aWywea38/E9927ZWHtrmozsKX9v6vRu29eCWdbae2IWpol1dmpVcZ3zCYX1cnr9o+dllX8/722TVBc2wM5YrV9yD8H0JeRRhEgo76UmD9Y/Gh94MT5oTHBangshuHXmhAauh847S24q1RWKtdq2z8dhu/O2f292Pfmlrt29ajvWb3MHZfMteX8jbxfmyzUxpTSmFkvmwTHnOutV5y89dssLCFR0vy4XV+rkgxdN1CB3Wd1I8NYEjyhiUDEvozXKwxYQVRBEHhBtGn8jKhjsZPcr+JOETRJLo5/p0Iotssoq+5k2R3PPG7MAblFBYZflxBMMWmfU0a9+WliJ1bzf9ZKnhj4NF5K68m1uff2RfffRze3rjI7PdVSt3albqNPyllatLM7Ysq1xKXj1ryPXniyWQOTt3zfLzl62oSTM/JVlrAm2zlHFCh71v3jgL8mRJAJLeaIxDGyc4Ck7su9ZpEoOuyMnjpExDii1XFGsiTXT3r7n+xD7/8f+yza+/NtvaEpE7Vs5nbKqctaliz4+VkiinvCZFzLRqylO3bn3Lv5rYq21brsUbW1p5i4sdEQPLEXQeYimOgrmlxk4GApIhaV5y1qeWkKQMWBuQciPDrYorQnIsdVCDGuOTAxmU0g9QnKtMKqk20RhvdzpvCEGOA5L4SltufF5r9Vzy4kpW69q8+pnBtd5Yswc3PrdHX31m+dq6FSWzgmSXV3umSiWbrVRsWuuaYjZssLERRujKkre3N8zkjvcUb+qY0XixXCjmw9tmbJTlRGQ242h3aBGfSfuPAp/EkntCQecSL4bI6Gki1IHK7g17bUeyCsRCaLDzUr4CStjWGnJ30xobKyLtI8vJla5o7VvItqzc1dpS6bd+/nfWXHlieRESpSxobEtyvSuFtk1XwhcR8lK6ghjjj0E6KJ/cSuW3Rt1au9tW296ynR2ts9sNV3Q2zwrcI2tGuxz9JqOCSU/0EeODmO5IbhlCyBQPDu9z/xhDkEUsJH0lkBMSD6eFhgQiU5rXods92VOCu840wKZgVuSsrTywjoiXadR8gizwHWgRkr2G9fu3bevRbcvsrIrEdXk/apNMdlUEnq6UbFoTZDHLk3N+EZuJIXmrTeV2G7vWFpFbNclT8U6z7nsBPHeG1LwZFtpF68ORhPjHvzSiKEOyPhMvZJBRR58kzyeOncjBsiTiTT5QOv9lDA2Uu5aemtUfGaLwg4L5AwsRuSeFyItwBR1bG6u2/eiu1mg3rbN+14rNdat0t63Y3bFye9eJfPujD621uSFlggAZt675TNvKIvLcVMFmta7j20U8ouJFJN5O8schyt+TkjV2RGIerezImrRrqrvhbnsxozbwTjcbUyiybvXgZIk2jj4EhRyQN+YcgZLilSCHGPqU9CukhRz6pC61O2g+QZxIxWMIZGYaCwnIN6u08Pzb7beCCKe+d9TP3ZX7tnrzM2utP7ZsXbJrbFm2uW3Zhqzp9rrtPr1vOyJ6e/OpFUTCktrQlfWuFEXkalEWOSvZYM014alKjbDkyeZdU5ytWaux418mcULvbknk8oRUf1HekndH7eLoLdbR26r2O5GFIAnfGgwZOPDhzxyJhbQ+zjGRj2mNHETuJCboD9XpMPCoei5nJblibbm8vOPM+7QFpUGqJs98Nfi8JVQQabCaKF5HLnSX96TXV+3h57+xRzc+sdrafXvn2pzNVLNWKmasPDVt1ZlZq9fa9j//x1/Y+opI6K4sv7nRskq+qXVc1167NG2XtKZzksii+Jco5LH2XVPRnt+2io+i+KE6K09bbmrByvx+l9bRuell65bn/fes+Mqg/54VVPFlcVCoRAp+ThzlS505eIMq5FT9I3q4HwZ3JKCLMeIhXtXkmC1qElQrFEq5rE9ovF7alpWFcDxOasoC3/rNB3ZL69+uZHppOm9XFmckU7nWcn/zBU161Wm7c/ee3fjqS9t4+tgJiGfS1ngtzFXtsuR5aa4oj0fj5uVqnH2SDu/bddR3AksU/w42u9jFaWsWZyw7ddEuvPmeFecuWVbr6mx5VvIPz8Tz/FaYutPEBZfX1GK9Ts9kxX2vJBlffwxI3+F0lFD/Udr5wzFZ5JRa8aEY1sF3KBOysB7q8AgJ90vX8zKLuFc8ryxo6EtYPrZD5MLxDSJm8Ic3v7Cbv/6FPf7yY9t5cMNyO0/s6qzWvL0tyzfWFTZlSXatIUt85/ZdazRaaonWXvoLrnFHVqNns1W5gdWyp3tL/cMb6inBUvHSQ9NK3V3Lt3e0Zt7xdnSwKjW5hlLgLm44LqlmAdxIHgyV8uFFFKwJcI+jXz7tiDGpuGdB4Tgqto8FGU1Fd5NCPITJIg3uUO8kY9qBpcsrlCT9PJ6H1rb8Lklrd8PW5Nl88eH7dufTX9nmvRuW2Xpss9mGzedlcdtbVmjJIssqtyXXdRF4feWptRSnRh8v9btazruHM1WRa80+BbUnBPMG+oF0ZKT6cakl257awSO2rjygro4dudy9Zk2sD/seTAiMHhM7j8CYbd0eUzn9IqI6/BtwnqzzaD3APvI8Dzhe1xo5ExRxeri1c2dZY6OBgcRSsJiKdWCdmu82pHByuzpSIhGoJxcPS/zVRx/Ypz//W6s9uWu5+rrNFZp2dSFv1azWx1ob5xOl2N3atgeP16ze4tVBqYIa4USW29cnstZ07g6nxlpnSRgoXdHkUss1ZBMIBetKiZu7uIgoIRs6tDdcR/EqWDE2iFR2V/V2ZfGx9lHxpPv69OlMiSidDnxI6fYjMpf9WgxDCC0eIJ7TZ7wZyKtJSe3Miig5ESXPJpVktrvx2B5+/bn96id/bev3vtZEuGVVq9mS1rpLImVFeWQXRfymbW/v2Orqmm1sbsoKt7x/fF2Tx2FT5aITecaJTL3qaSSxQvQ6+I1vlkd88wv50j7Gnf2J+vam1s9bvuFojW3fPS+QV667ZnyvR/OSgspm3FyeuN0QmXgClxGReDyfOBYiB+ISgrsYNmJ85aSUIHxfD2EpNKhZXjKQ1etKkXJYXykYX8jvyjqwNoVQ208fSum+sKd3b1kZSymCVXMdW1qo+EsgKIWKs1a7Z1u1pj1a3bFGGyUaQ+QpLHIkMq3cCyezrqFMWDOfbJRVnr7v6mYgMV87rG2a7ayJJOyO11UPrHW74ZNVKF71oHhSMkjsExaKSV6lxyxMeuMAAbg0FKLy0od+KuRBEuFall1o1qGyqLazalv3IeumTeWVnmtZc+up7Ty9Z+sP71pX1jnb2tWk2LF5rXfnJJ+COoxF5/He+k7DNrdrtluvW1uTE7Jz+am2qog8I5lOVXL+wwe+5+DrhBAikelfn9+0Vfe7PCWPLK6+Ju2sJuje9mPL7K6ZaZ3OVzv5zrfrC1+CyebMf6446SuFUUaIKUKbnMzUeX5xTESOYBDDMYgapyvEGHAeVTDjZ1pb1tbA1dYe2cqtL2317g3benzb2puPNDvz2GJLevjYVu7fsa2VR1bieafIXBaRLyxW3AoWcWn59QtNGFjix6tysf2nd1Ku9VGIjOLoiAVBJ4KVoSTKkiLL1cu2ZZl4rbIuosjSsZFT393Vup8dWSyP7lMIPzTg0tC9TFwJib0iJjmOUVYHIdbPJ2eDQFtpV1Ro2p1T2zoi6+qdr+zhFx/7Cxw9ETrTkvWTvLc1WW7ItV65e9taOxuaoJCpicTDRGZi2JVMd5uynK2OdXi47OAIkQs2o/xTpYzuCcQaJbJPbTp1Mns6p/xRB6PEhNlSGzQ5ajLnsRVPDhq7yFUTPUsYZKf8TBR+H8HHBoS2DIjsiecWx79rjaJKrgP3koHg96i0Ds5qPSwXqr0ty/Dknj29/aXd/uTXcvNuWnPtoWbnNVm9DevVNqy2tW4bIjHPM/0bPXJnSyLyxYVpq5Ygcs6fRbJLW2+ZLLKUICEyQ40SBCJLUfUxFYkMnMzEB8HXlomihHyEQBOI5EFkxbXuyeqx0806ckcuYpd1ntZ4vlyQUmE/aInviif9537ftU8CstmfyKF+ao11+58IhX/j9onJQZ4CVtg3m3iGu7Vqq5LpnU8+sLuffWi9jSfyHDY0Oa6LuCtyJB75xLjy4L7W/TuSq5YGeX6Gt6zlR1Fusnrs7dKKupuVXLtWF5lb/GCDDyqU7FnFiVwUodkf0D1MeGF28r8kGkB5IZLIVkqHjHSfy0tyy7S1XpYMW/Uda8oD8EdVWjZl2C9Rv3jCwH4EZoER8bHydioowauK9Z1THAuR47gh4GKuYJ1GyxoakLyUJJeRsvXqWvduiMS7Vmhv2eb9G/b1r35uX/z8p7b54J7cqg25zzVbLMtii+gdWeWGFG1jdcW2RWQU118q0EguL836BhMWsNMOL3DUm70h1xrFR0mYPNwii8i+2YUWuVaFFnNKmgdP5n7dqTIohy9S+OMchSSHgGXgAJFQNpFaa7z2zroM9bo8jS1fS6OsbkF0W06uIY/f+IaHvyNNCW6ZQzvGhfiXT+rGIyD483GV3cMFlRXLyiuYznf9m1OPbn5i7/+v/2FPvv7UcrU1m8nUbTbfsYo1xYd1TY6rtru5ZjubGypLEwBliV1Y1xnJxx8hKUDXVidj27WGbe3I42i1XWy+XlWsb5FFZMoYTDb0SwUkFjKs80nSNU8nhCHwuZSj5IAseGuPn2di3DJtWeXauuafx1pi3bOavDN58U5mf3xY1Fjy/W3JJimGYodC+Ajw+kI0nXymICkeH3pyrzpyxZCar500o3Z3V6y+ete2H31ptcc3rLV6W5biofU2H1tva8VJnJVCFjQjl5W/oLWzP8vUEZLwu1WaklWkf3lRI4Eq8QiJnc1kd5N0RxiyMJg6jo7oHoScntvLlUMu5SDwOMofnSg9rPvJT9lYVyxhU22sWUHLhFztqWW27put3rLW4y+sfv9Tq9371JpPbqqf8jTkYeA+hrUf69/Y3gNAV6OVw+KxvO60NWFs2e7qE6s9vW/1J3etwZLkyR3rScbdtQfWkOJ3RGrePy+1t30nuqiQUzuRa86fkeM9hOe/XlFkleIx5sRTOpa4/5ad/g6FIPgk/+g9yJDyqDvIAiWUuvgLOEWrW7GjNjdWrbT7yIqb9y23+rXVbn1ku7d/7bJtPv7SuqTLOPDNLDyfgzDo3dnFMRJZQyJJ8b8UMnTM1Hwjafvh17Zy8yNb+/oj27rzidUefGnt9ftStA2rZnjc0/RdYt4oIhQJuKlaE/trmJBYMzv/DQrPJ+OsHoYlPTSK75d+SMAbAsSNwdd7UjCmEdjkG1F4Gezuqq082sm35Wk0Ny2/+9iy63et8+RLa97/ROEzaz36ytprIppc22xrW0UwMR2+TaFROrJObbd9qbF675at3P7KNu58YTv3vrDdu6rn8deW3ZLiawLkO80FXmjRsSQPh1CUwhckU96v9v/6pU/O8W1Jp/bJrKYcHdw0uDGcMRmG4F+V1DGsmds6ogN1eWi7VpUHN9PdtimRuvngc6vd/kiE/tAadz6wzqNPLLN5xyd+3t7eD6O9G9/b049jIzIC8h1KuZFd/TV2N+3RV7+xG+//lX354//PVj7+qa19/r6tfvWBbdyX8q0/lAstxUaxdHee9Z8srL/mp8ENbyOpTBG3LbfLf8Td3VFqGwPcuGH1S8J+4FqwCiHo3M0eQVNGRsqh0FOc/9y8q/V9V656COqh+soXEeKXEfhvZbDO5eaKTdce2vSulgxPPrWtG+/b+pc/l3W+4ZaRXXks+rMBxaTyahaPtLqyxr1mQ67mY3vw1ad266P37eGnv7TNmx8r/Mq2b31s9Uc3/fVVt7iQQu4zSs7LMRDYPYnY14RSIQTEiSyVNISDpHkwQqHB+kJgjbXGmPbxU0wFJnKWTuxmsxnqeaQLOmdS5+29qda6VbbvWunJJ5a99VPr3vyJde790vL1Fd8/CV9YGQ7uw/XHlBA8Dq4+f19OJo7RIgOtkvwNHK1d67u2/eS+LPItd/9yW08st/3UTO50ty5Xk+fGWDWUC+JKvJA3DvTAUhBjchDdfU0UtMyvQ94UgYPqD9IToxMuK7hl4c8vxItAcQba0zjGeDhHsfZe09HrxvXV/CVFco8C69ySda49cXe7t3FXHshda60/sNaWXPBOVLrDgaz+bJrNgHZLFnnVVu7dlkW+YY3VB1ZorFuxvmqZnafWk3xZzvDjArTZg2TrxHArTFpSrn8GiUWEtGF4FwUO464/G8l46eawKUZctfq5xlsheAi0lTBoVSR0QXrCu/XVzo6VGytW3L5n3adfaeK6Ye3t1fB832t5FgY9GMTOBo6VyHi97EZCxl67bs3NNetsrWsNLEul81KbFz8I7EJqxs0ykChXIGAgMANIYNCJZXXE/GkV5SZf5/1RC/e5t+0KEEIcphjvu4Z+ynFkGPvl7UUsM7ZxKJ4oolsYBZ4/+2Mg9dH8vWURWlbatJbr1NastbMuVra8jENB/ae5QekVul1r7e7YDmvktSdmtS3fyKrgRnd2tWZXkIWLVjf20omjo+8a9xNjbwJiMuhnScIo0mmjefw8VRjnEDhshvHHWCZHD57Dj8N/SVkqjMdV/uhSHhJuN2+f2e6aNTee+BuAXU1wgPxD2JMA0j09O0CCx4Kg2FrPyuLwuh3rHb526L9YKQXstmQZpF8Fuce8CYWudbSedsFK4HA2vDzAR3jIwpvCuV4MOlcgFaXAox0afg024wapSSePJ+wDlM3JQdBimB/18yNKp4YMB7VG1/iPx8PR5BYSeIEES4xVkQTYIOPL+bmCv8hQLOStXOKbPiK3bioWgvqGZilGh/cLSU7oyP8YWSwUrKRQ1M0FybMsARS5Jpebr2fyoo0/0/WyA0n5YgXvuxNCrQpB3AIRhRQYgzAFxDzDSErYF34tKZJ4kC16QVCaDzJX2NriyUDB5cVvkHU9DF4g8v5LF7wPuoUf+PMdE8kikyv6/6KRV/DfJYuVoQM6etB9QS900ZVFgbg3RL10DyyGpNGnGGHcjwUIQwFXDlcZS8tzVykdzz/DYGK9JEOXPHkRagykRCtBCDkJ4X+YYHjDnQExZ7jLQTlJev+YXCISXGuPJnlGodSobKmAAvrkoftioE4ssQf6pruDXSYoN4qkxKA/uIiSA/FQ0bNBQ5PAPfwSKE/IeduMN9D87TPJOOwnUL7OY/ncR4ruCdJJZElfuJR8JhmPjHi3izvBoN698RgCiNG2EPwHHJKA7LgWgtrt7RfVdAsBQntP/V4e6Q20KQbAPR5iQsToeR9JY08xkMQxIqiNBymaxO2D7eLWMcrRhe6yiwKMbmBa0p7LRyMOlV+N9yWkHYQESXq6HUwYHELWEOFzHEJtw3+eqhuSFoWQnAcSh37S00AajoBPlg5h+RDOj45BvaE/YTLhCJFVdmyDB/L1cydkiKn0g/hzIH2b6o/9J34QQs1phJTQ2iCvdBjcwXUVrygBIntf0oF8ZB3TnvCa6P7wvGcIx0zkl4D9Bshdpf0Gj2E7YOhcC3C3Dh78g3AQP6KSfTNhP3/bvimel/svD8hm1E0OaeMI7drw6sT5QvBCiIyMfCYNp4eE3xWiYN+bw1zeHwhXsmhznneA4k3PdbPfFWy8ghrgpWD5wz+Phw03Tg6HaIlC0L1JuVGuHEPfAzwtRI8VscwXUfYLAQqQKEG67UPtHzo5G3hhFjkK73AyS+cOd0Q9TemqMK40pWng4vgN5x+HZ+c4DHwTJQFRP00UKMKpB4HDicePAr9lXFBdMZ7G6HmEt3S/i45BXwYYTI4guOsvGgc2cgjeGn3EY0SIxnI4ww0PZ2cZL8W1Rqz7ylIXonVJDkne4CZhfRNblIQB+vmHk5P7xyHecTzdHiUzpRLCr2qmMGo+jxmHUdRnt4CraRnHOJNkvPvgEsaDMqLb+6wQ696LsHk4CPpQa7L6SzZBs4N0D2mo/WEN/jztPx14KUSOQPSIclTP9yLJ4BYsEDmQeRg+LM8sa4AjGsQjIajIQFG8veFfOEbLfMyIZfbLTpoQNsA4huAZiHOxn3kcwuQ5iCfwpEH/Do8DKzs2xJaFPgdNG7Q2xF5OS14NXjKRqVCfMGpfqXJBSp9iXaDAvjeMQTrvYDhHyz02pKuIUDUDMid1voi6R+AKTDUKTmIaxz+3YB7th/iZRrg2aOeLb/ExIN2NSOK+FzHA3t6eHRw7kfcfeAk3cXk8DxbjmVqi/NxzCALwfxRDGLJ6dn0E0lKnuukvWRw/XF8OCc/67K4cD0Zl5qIMSu6uKDIZcUE5O0J3TgQOK07v28uS/SvAC9HucfKKOoMyBYLFENdGMSToR5NV8qhijgF5+Ev+DRBP9hShhLTfORS+OaCLH7ESRy5yb1vipOEp+zFO6YkU+ogTaB/JeTp1XHHpMk4qkMl+7fQ+uezJxBnhxUzorxovtVcotis3hOuTOSKcu/CBrgcXTyHJls4NhtV1PNwKJYobcw/fNTqRDF+NGJ86Bv0OgESJkngIhy5J2ZVXITx+CklRH/drqctXGJr4KCaJDmE4S/88HOLFQabRyTR1heHqY5AvnZ/4s8JzILktfXc/LmGFvyiXRHAeT2OsdE4VXvn05OLVRyQc5zSq//8pJTIOZwpSkhD6CfoHGfeC8vw/Gctl/Z5wQwDn/kU3JYUQyoQogTjJV+CSHVXi3ZFAvv5EwdHf8aX9qb7omM0oxc/J57WHclXGviFpa/g8GIM8sXzSQiqn6RDRP/cOc9SHyyAGtcGPOgyaM6jLLwyHtIx1lrokWSXXDw6HzZfUF0ZQUQUNol/Tn1+LwdMH4xvaholAy2JIS+Z04sUQOdESl1taRkn6EEbPHRJ6uNvjgUw6kpfR8Evh6NF90CdZrGQ0c/88RNKfEdESjkNso3+m8ykeaJuqux8n93Adzw0VFyaeUCKl+ySiE381NUkjxCrTcYfi8ZRj6FNISY9BiIWK+kMgcIwEAeFayBCS40WOhwmHg+ccfCQyYNlGhF56Tx2x1HTp6fhZwIshsuCCCuPeR98q+cgnV/ZINKYPLvRn2sNA2fp50xqWpPpsvi/GX3O92Ad+R9LPeHdwJg646ZiQrjOCWr1mXfB2hDMdwrTCeT8P6EdCNJyOlppghCAnBbG1vH896MWgreFz9Oxs4diJ7BNiEo9AvojPRcgHGTzTPgozhHjDwXCCQvjkiD94aPIPgXtSvuQzMK6/JwGjE1aQf9yxDikxdlpxWNkzofk31jwzfT4b7nQax0/k5DiMRGh9qxAUjbxj8/eVMBz9dGzGYSS5B599CxJCKDa24Fk4RIVjwX0xBARXN2nFIPnFQDIelVdYXqQwej6Cw0ropOBgke7Xm9PWy4PxwlzrcQiiQ9H2Fz15PCjPQOkh/cHDtQeRxMkxrp8OqHoE3Hd0hLuoRCHVB2+F4vH4ohBJG2UcexGP4zG46m30W2MjOaasd0w+FaDN43uORpwlvFQig1GxwjP/rqniUezpPMTJ4yEmvHBQydErCspx8hTk4J4kffUJL91+HePMkyDJeSoQJ6QwKdHqgTudTOsePyt4IUQeIl4aCDaJngzQwtHwTTB6P73dL3wTjGlrX2vHXBs5HcZIW/oM4CSWpZORMsaO76vCAX0PvYt9PO27AvvjhVlkF+k+g32yhDmqAONa/E1Ab0fD8yLd1hjSGJcm7Fel0vfmjsuYMeUIfiW5L07YoJ871hWPLxr9epI2p+odbQrHPufPGF66ax1lfVYEShdieLE4SGAH77I/b9u4j5LTiMRNo0/meEzCy8FobYqn5BT1bLBrfTbx8on8TDjNQzTCNWQk7cg4jjJeBdC+GATXRgUdfa03op1+pm4iMs+ZdDnGY/o3EYWXlYQ+UvWky96T71gRSw61DPYoknD4nc1Tj5NHZB+DqG0Ro+dHBZqVDq8ah21D7HT6qBDJrND/3rGCQ5F+7iQxngOPp6tPxw+JfvlJAKN19CeNI5X/HI0Rwl3JxOZxkG7R2ccJtMgRNE3haJpwikDfDgiJSg4r5njl5Fc6n+leq6DRq8el6pGw4Zcuk8QhkEifnhXG3rwvyN0PSWeczCOWmGsxnFUgvVeHqAHDQ6KQwAWfOj9vSBQvWBqduDJyjNaHDEkmR4hHsfrVJD4u/UgYuW+ozBB1ePyoZT8XvDX6lxyjl5KQ2GUT00bDGWT0qyOya0IS0vEJBnBxDJQuEjeQOsSHLHEqv1/VeXJlQLwkHtMPi/R9o0eQLi8df7HwVgwH7yfxBKNkPqNm+dVa5AkOgcMoIemB0DF3GvvdhSt8HIiEjlOKx0k7pvL3hSraWwWJSfCWDCNe2leUpxRng8gvXGNeNdJKmdbAmD64PioKT4VUMZ4gHf8m6Jeb1Du2/heM8eR8GTWfHJw8IqcVYUQpxsI1J4bTgONta3C3X13v+71JeDNq6V7Wu1T9Wvr1vyqJvBq8ciIjbhrBkTHwkBoD4pzGMBioEfQJfdKRtNN3pg8Kh+/Lq+61W0MdY6s9Tlp/MHVldFd+bDiOnqgMyjmEPkQrPjr5nEZIeq8Wo6L2sU+FAdKDk46n4Dek8gyFl4W9LX9ehB/tC9888l6o2IN6FfO8CMSyxx1BPIJ03HHoNu258wjwFoVP1w2BetM6Q4jXzhheEpEPPZJ9IO+hu/wkNSBDIWLctZc1V4328eh9TqNPYg+cD/eK83QVMS1eP3bEspM64/EbdnMMjtp6NcCVJek58iLm7U3SRoPnPVs4Zi1Hevu9nMB5vHbWQL970g/6ONrvCY4EJyVudlYiDf8vdn/SGNKhcTp2fnHs5irMhCG4oBkXYomie/B0Tx0T9oEXuN/1UNurgRSq/6uX3UDmVIjk9r8oC4VnYUheMZAeQ7/LRNjyyiqNY9z+Oo3Ahg7bUeBpQ52KUpgg4viJTJCMg+CDUvFMsZuVIir4MVHMkGkkhBtTCOehpNFrYHTYXyZob0dHiKyj2u6vS4rYA/Lx07nEQ65xPdgP/TK8nBiP5STkJfTC//bfVThK+ceBUcl7/LkakZDYLTCxiFDDoB5kTugn7IMDL545HCuRkW+223X1SlKkxBnrSKaEtjJ0EmVMLo9FuI66Dqv+PtkTcPXgHIcHdQ7qHQ+udy0jImcyLYW2am97eiQdBGbiCkHk1vGoCL+vrfKSCdDh3WTo8goF1ZZXyCkzaYTjksPhQLMIdC828SiAuNnEle6HbhKc2ElG9TKcEKJ+jCLqQQznA8dHZGSsg6uS4q6zzkhZDlw+RftBqZ7brw/Db/M/oX9ZZ/o3nJuzvffvn74f9ssfWvlshBYPlCqex7TUMXkP+ChwT6SnCcPvTStvUpbLMCi/S//oVRwZUVppyaUl6Olqh4eQdDB8SRAQ9SP9JnlaTUI05k6DG2PG1A0eT5+fTRwbkfsilIwDkZllg5sUBDwQpv8HYsm1cD254PCh6w9oQEgbIJYXQ0RyPlLf/oj5Dpt/HOK9UZShT1kRLwR5KH6MOdL9eBakztzLUQSmHNSbeDgm1z1dNavo5+3FURF7/Swcpk0+bSsTkvEwduJPyvKs/KXBWTpE7Jd+9nBsRAaBwOw0ht1GD3KPcn7kGsckuAt1moVL28P61HoFGcq8XMF8v9859TEveeS7PSt40ApWx0DKZwOSkjertbeH3pggV56Q6xE6cq7l5iekxsqdHun6ToIvPwaB5YjEqk7E4D2TbIMBkP6o91GFw6+GEs4njpXIAWlh54LAXehJulep+FBIBoLp9rkQynj5UL1sNEFmrVO9b8kERTz2HWKHNLp4lLYm8oCcTtCE3IgKtU7SYlwHl+Pozw0Pn8brITHkT86SeMjjp35BZyTqPByPG16Nxj7+sbfAXgrBNwpJU55A6IE/4uY6AXnSCNI+PzhWIg+EGxTa4zr2PEj4krUMU7juecgbBc4FZdDADSOcx1x7EcvYP8eLBZNU6E8gtEIm6Z/vIkO9vHUlA/ruMjp0W6WOblnDPRmVixy7suyIi/NslvJRbCVJwKNk0+0OkgNpw/X+OXE+k7ifeSRe4RqXk7gQWxSxN57+PAT6GVUDxB0NmrlQJyx0Rx3yoJsgdGib3+rB2xY7fY6Ath0TwiyJcEPIWrNj1pLStaV0hGarZ40Wu7A8KpHDiDL6n9BXJEVJ4Nmsh5j6LPhNIeogfozd2wfpGuNzXLfO+bIUryDHN2+dbNHqnYztNNrWUXcO1yPkIqLmiupGQZZI3k2h5M50TeU02qopX7RCZVrXkHXXWu2Ok3kYx6fYQaLJiKlMyuV/m/TJhnhyDal7nPTss0NWY0wI/5vlcKAqt8IKHfWzrYmrpdKbUpKm1AM9AmGioYVJUF4mutA2mhuOZxXHpumQz/8TrZxImtVqTcEKskQ5BSlhW1MqD2eYTU0KmC0UpZhFzbTBmkT9C4cUqRVCDh110HBQUQg+aAn6N8T01LUXCKYsN48ecAXVR/WJfjdlkWsyI3WRuZUraRktcksWQeEOBt2hRJ8ENUzdXEGyy7scm7q/iTKr7JZCJyOyq3yITdl7uCwMW2OOCjEt/EvOPeJHj5MW//xaaPtwD3xUQiIEVN7DT8ABfquCeqqlA/QM5sAnc6lStliwTFH9K0gOhLwmSOlajyCdcpnSZpURCT3cgqO157TheE2WFNgk5K4LWVapXLZMScorJWQmJSB8rjMgED0MQiLkoDlJSIteQ6NrPjwialAbBi45Rvg5XUqlvUAE9cHJ0xSV6aj6rogqD0R9aqmvDZG2BpmzJWsVp6xXlvXUBOcT3iFAyQ15NFigtqxyC1ddk0G2pLJknZkosPQdkVimWRNjnCj2l0AkcSC2J4Q0jiGHp3MW//gXQsixb+Ex4xFJHAtkjCExG3d538wLq2FHXv3CMKBbEFmk7ioYukSfk2yMCIFJcICR9rwc9XipOD6LTEBBEyK3Jfj81JTlqlWzclEzKGSWlZK7U5fUa52OQkvKetRBPxlAVQKJeRmE0FT/WyKqiKewIwLWIZ/I25qa82MD11gy4M5ngbU1b2q1rCDCFiW3osotW3n+gl24+oZV55fNitOSpeSaKyvouhSaFqHIuJIvAs8eLdcEBazpYcc2TM2+myDdKCjk2eUXqWFoV/HdRsN2mk3bVblN6Va3JI+uUnZ9s9yIGkdWx3b0g6YlVRTJ7vEknHYcq0V2sSF8Ebk8O2uX33zb3vr+D+3NH/6OLb35bZu++paVl1+z/MJly8wsiOBTbqHivBusM8OZNIsBUXk+LlHgrhwhsBES4iA9F8e0vejfjaLvGcBBWSETR5UZkxMkrfXgNaqstkjUFJnqso71/LS1p5Ysf/E1m3ntO7bw+nds+vIbVpq96C5wv3/PhBQc+Wjy6/R01L2zF6/aa9/5vl399vdV7rescul1K0mmhcWrlpu5IFdT5St/6FxsJwjS4VqoP/o1QWZ+9L4qXbcQ/Pl0vF3w8fExCmHI+/G8YfTSx0H9QHnDIIZTIdSV3OPHkCe8cirrqwmsmSlbPSMPpDhj3amLll+6ZpXLb9qU+m7FqrKzwRjaFqsjejCemeFU4bAadThoIDqytBm5leWZGRH5HXvrB79j3/rdP7TL3/09m3/7RzZ9/T0rXnrbsgtXrTe1IFex5JsYWGYU1t0kDWLYOhF49qpRYVPEn7tA1ETT/C8Zu4F6cRbDOJADNSPH8GBy5mWgUH415PBAG8jEnZpciFMOm1lNk6Jlp6xemLNm5YJ1Zq9advltq1z/ns29+SMR7vs2t6xJbDoQmY2YZyHWm5cs+eui3Joopi9ctivvft9e+8Hv2fJ3f8tm3vqula5/2wqX37H84nXryUr3WDPH1qovHpCtewMih9bVPQV6lFFfkL57F4nYIFMgFX31UvzgEiFJwdvj5age8vpVyYXyPCRk5nYH+ThT33XkjxYgiRx5VaaTGF3I5OWJ4GFUrJXTpFiat86UPJD565a7+I4Vr75nU5Lt1JVvaek2q37JKntJasWgQq9yf3jHzgxyf/Inf/Kfk/g3Ql9myIfHIwyMrEm+UpUlWrTq4hUry2pkp5etlp+1le2GrW1sWLZd10DWrZDt2OL8vJZCcs1REg3m5k7NtnZ2LS+XNKuRLufNrixN+xHHs8umkvI1WmZPVrZ8J9e/OADptF7NZ7s2VynYdLVg5VLBFZCpOszWfITBJBYUkXJRwHjOn9L0AaFI68nN6/XafiekqPfKcveq6tO8dWcua5J6x6ZE3OnXfmAFKZ3NXJPVwFLKmsiqdEUmV3Ea4W3ZG5IpLMRJ4w7IQZwli2Q6feGizVy6YqWlS9auynXX2rnWytjj+4+sW6tZUW2cLWetWlR+rS3ZYGx0c7Zd69rTpztOwGIub4VuU/nyNis5FcRk6kBOrVbXdnbqtr1bV7kdKOoS6WjqKhXzVq0UraJymXazXa1pkZNy0c7QXmQY7hmQTD0jMDnpmFddPLDLqq3BeitfvuJLid2ePBtIXFkym71i1WvftvKVb1vp0rtWXH7XenOvWbe8rHXznIpmctTkrzL1EWTrk0I4eBP6gYZ5484Ujo3IIMhGn4yJjgyYiZhswmTY7JG1aOeqvtZjKyMHOUTkTLdtOa1zqnK32cjJFrSu1oBuiuwb2zUNBsPdleKZXV6csVJedWgwUBmI22ibPV7Z9mMgMrV3rZDricj5hMhsiIRBhCChkcOB1Bj6yqdjRwU2pMxtJhgpf099akl5Gln1pbwo7+K6leVllK+8I/K+YRmd96R8rdKitfMzshgVtSns3gfX1hsYlGwMqBnQTG+FmsdkEpXUd2rZ8S/KmymWtWYsutudzRatqHogCMSoVCtWqE5briqrVZ7TpFOy7WbGVtd2VX3GyoWslbItm58u2vxMxYpaEuXUvyzuvKztTr2l0LQm7wGQzgamGDpVkYs/XbEZHUv5rCZhDbPkHTenKNsbrxRvL6mQjCsQWYEJg3Mk32FDT/WxD9DMT8mFnpMLfcGKS9e1bHjT5VqWR5Odu6Z0TVzlJVnqWS1npCd4H64f1KlDPHq9yXkfcazPHo6VyCBMdkF4PogSMlaTZ6qdjIKUratQxqpUp8Q8kVgKVBCBKwvLvo4saq2XKVRsfatma+tbTiTTrF/K9+wSRC7gege3GnI0Wj17vCoiyyK5a656scgFWeTZas6mReaKiAzN47PJ/jNqj3MMA4w1DA6fX1AtOX/8s9Psqu1y4TQhdbRWa+JGQ+LFN6wiF29a7m1J6zabvSRyz1tD11siMH3lbYY4TdBmtxjCfkQOOUeDPtVG7mVNzvP5JkeRjnbxvLksGS7Mam3uu9eS6fScleYuWGHukmXVrmZuynYlo3XJFBe4rImulG2KyCWbEzELWFiNhclr4DGXE1nuThP3GRJrAsEzmq6WbXYqELmsSbWgtEyvow5BZB30GYgraquN3ncu6IOuhzwisASAbFta/7MGrqt9ba2Be3NXLH/hNbnOWo4olJY1Oc5csk5pQZ7HtDVEYFzvbk9tUvASVbBP0F5PImNCTOgjjPNZQ+bBgwcvpWe8gYSgsYqso63dsExz12x71VqbK9apb2umL8uKlGWpO7Z5/5Z98sEv7IuPf2W9xo7lO7s2XzH7nXev2VxV1lxDScNFV9tUMb/+/JEf2RxhRZeTg1bNt+3aYlHuOAou5dZkEMZc7RDJAWWwaQaPUT3ejw6cDorQUfltldniEZJCRxYjM71ouWlZjPnLUrY3zGTx2nJtW7KMbVnGjo6QizfaeD2z2JG6OmtVHhNbMlHAj3HALR0LJh/vXVdEbkmR5eb75KQ6RJwCl7fr1qvtWGt307Y3nrgnMjs9pYmyZJsrT+z+V1/YJz/9K2uv3bdKd8tmsjt27cKsXbm4YEWWMCxt1MadRtcePF1X2LCNetcfHWZyIkuvaRfmqpLpnF2aK9uUJgNJR8ujptqN/0ILIW9io5E154hTMe+3Do22Jkaf4Hm+rrVwvmq96oJvDubmLlp2SsssyTWjyakrD62tCZHHbf6CDWWrv7zlJiozTF62zx1eB4HJk7ElLYESggt/9uBdf9FA0XKazX3GFCB1TspeqMxYdemKzV79ls2/9p7WPm9bdl5u6fQVWbZr1qkuuavFCxV1zdoMZIsBxQXzUPDQkgXhRRPfd1H5MaBE0dljqIn5Og7HHuvhFiQQmrz+tQOV58TFdc5UrC6r2pAVYLc0u/C6FS+/a+Wr37PK9e9b6ep3fAOmVb1g9cKsrIoULic3mqA2U5u3xbsdSHgcoCeFvKyw5MijGSbGtoruyir3tF7OL16zytVv29Rr37fyte9Z7tK3zRbetM7MVa2nF61VrGpZkDdNpf7ICquODJuafEKQbHVOWrD4yBZvwKUagk8qyXel1T+XNTIUm9oewnnof7iXMaK+htrZZJk1pfXvwjUrXP6WVV7/nk29+SPJ9Lsu4/yFt8xkhRtamux2Nf5a3/vLLxpkpjIW8kg3xpFKGqHeEO9j9PwM4aUQGUQS+zoVMH1qUNnFZeYtyCXMaB3Xxr3KYPUuWmH+ihUXLplV5q1T0NpJa+u6QiOno2bxhlzcdpn137Sv4cIrfyofxUPJNXK+Zsb9cjcMC6nLIjA/gMBuKcH1U6NO3jYWWORlbdsqzFuzpPWY1mUZudAoWOXaezalUL70juXmryrPtJSz7OTXKl4FFSVUueBenyYv3GodsVDHpUnIMs96ViSjTMjM+9fsPXe1du6UZN00SRbnly2vpUpX8mMyavH4RlavMH/RcrOL1imrjyJ1E3nKMiLTlghGek9y7epah8khr3p8kQ6BJSwFpBXjEAZXGpl3PDAhEkQ6F7iu635eamlSh5YeXbnPWZG1cOXbTuLpN39oM298X5PQ65abuaJ1vVxsTY5tTajhDTZNEqoID4R2MO3SBp8qxoh1D4nPOI59jbwf4mOQCAYAqvEGD+srrCPkZoMsk8tqnVewYrFo1eq0lmxaW+tW1j0LF5csW6qI2GUzubeVxatats7bw/sPrdNqScGZHGQNk6qmyyWbqVatKtdyQN6EyLqeU5n8uRso8rmrV9TkUFmUZ6C1pRSrdPkdKdmPrCyPITd7WcRYcHfPH3tIY3hsotWj6KtPyCuly8iCBCKTxnxJgNDSsDip7aNs++qgzzhA6qz2I0+scl7eDh6PSxU5awnRk+ud7bXUjrZ1Oy1rtdoMgpUkh9kFrZ0rbMCJDsqbK5UtX9FkqH4XNaFWF5atOLNgW422rW9te76uxqij5VBOZVZLeZuuaGzK1Et35H/k1T+NG+8F8Ew9UEyyZv2saz15YLs8TpKXhRUuXnrXCsvvyPK+qXBdA7Usuc9LpnKle3LvtQoK1jfjfWTOysiN72nZZQR5BNSbVV2MH31HLgGKJzIOID0Ef8R1BvHS1sjRIkdAXAjlr+LpGIYhuKI+fFLA+vaGba89tY3HD2xn7ZG1a6s2W+rYdDVnU9MVK07PWUVKWN/csB//6f9tm0+fML6s2KwtxS3o5LXFKbu+NOvruWynpjrDSouZ3d/zlobgRjakPGxO5aYWfP2bl2LlZy5aZmrRstNLsmxSNJHXN+ykPIGQtFhK5bMGROU5rSwR6zjfpaYn9If+YUmCMkVdkp6OxWHWyPwFKDME93uYjDQRKs6ElRcbWLfSAtzSrlzwbrtu7d0Vq63es90nd6z+5LaVMi3fuJqembdKVetpWfVWo25ffPapffn5J9asbVunuWuZTkNr8aZdnJvSGnnWLsxXrVyQm692MSHyhQ2+CNPSJMaRSQXHK1eU7KvzWjZdtazcZTauIG4Py1ya0TqYlzrwZvg+dzEhm2SnjvDgq5PRJ99R5qg/JAAyknFG48Zk6fJ3+QQwtgMM0plkzyJeIZFFAgV3bZOBSbTRzzNYHFmSbquh0LReq2adxqZtrz+wSiVns/PTVqzOiDZd23x4z/7i//o/bOP+XRODfSe0J6UtaWyvL0zbaxcgckVE3nGLktWAY2XaWA/Wgfmy7+h2S7JUS9fl5l+2woysktzSDC6m3Pp2ng2XAYlRMsjpmzxK8c0sKRTPlgkdlct60XvkP9BHLIaA4yGyQLrq9xbpSLE5yc9/zEDyRcnDJqCyqf/W2bZcW8RsbFl9/ZGJqZaX4k/PzvsjQTyb2ua6ff7xhx7qm08s2675plZBpL8oAl9ZmrELc9NO5BzylGsPkfmSR0trWnai2yKaFbR00uRYXrxsc9dlhWcvubfTKsxI5nLr8YAkV/YUWIYUOngx9CDIyknsRI4kVnDvTf2UfLP8qIO0gP7rRsUDJkR+QRglsgs+qJx/xo0nX79y1JAxYChIUEAsnwgtq5rJthXCYBakmDuP7tpf/J//u23c/doyzbpPzkWFqvRouVqwa1K6ZSmfTLrq4F4pgRSsIeVu5CpmM0tWkLtXWnzNiktviNBak/PsV2TsQk6RN8urgL72U+uczLh2PA2XhXevgkZiGRIiS4l9jYhyZfjeVxSzepv0/diILHj1FO0RypAbLbMYpKt2s9b1MdA0193RdU1Acr977aaIywP4nj8SlICtU98VwZ/aFx/93L741c9s9+kdy7S2rNhrWElkhsiXNTlekGXmWTRTSFd1+TPynEiZZQdfk19Z63HJs6jlT2Huokhd9f2QHO+fa+3bkvzbvrnIUohycvLQRE4XjIJkh032wGShPjuJve/kUV6NRYgP47wR+aWtkUeJHJQqWjApgJQg5IDAPmRuXSAPryayxuIbPz25aTzeaWkWZy3Ghlmr2bZHd+9Zo97ytTS/Z4k+51RghfVctSIrXla6rkFGvikk9zk7d8lyssDF5bd0fMN3oHvslksB27zqyNcOqVdrdCc1igo5Kd8bSy1SEicrCaQTmIY4wqigeMl0pNSQL+TVYQz2JlN+Ek1AaXugPDGd7K7LnhAnH07VBn7xk4v0SRaxV5ySe8vLOooTJNtGu2Nra2u2vr5m9UbN19msvZlkKyX2LqpWKpdVRng/oKXAlzhy1UUrzi37u9/Fi1r/+o7569bFlS7NagzZQCs5ef1RHMHbp5lXrUZP0jKGd1FOPkl5z5JEdCaR+x54esRAWmd1jfzKiIxy9ZWea/qHNXal15FnjZz5dVc4DbjcvvjFcneffSCVLmO9u7WrcxGbRye9vLt4KG21XLSpqSkrVaZEYN6EEkG17uW95OKFN6wkEucvvuWvVzZLcvnkXvMICQXnyx8ZfxECEtPmqGCpvmAldRr0Q2RJFDL0LbnuiqTWKG1A5HjPXoxNZlJIYfgsQXIjzWNaDJY9yAl/B3lg2XhZhn5AIr5dZZqwrKDlBb9ZLGJmeHOt07bdWt1qmiRZGPj9GhQ8p6os99T0rOUrM7qP57ySqSa/nMha0Dq4fOF1yfZNKyhA4naZN9ym/e0+fzFIbcJXCHsiyfjrGMgXJJTuL+12JNeD4ALp9+pVhNL7l5L7dUhKP3N4aa71Xkgx5EYFxQ9wIsu1w8UejAKECIONhWtLO7HX0irPl9cx22xYY3XVdldXbOPpY7t7+5at3L9lrfWHdqnatcvzFbu4OGezC7IWWgcWpud9/WvsPpfnrFuZtRZfBcTFk2UJihXe7xqCFChaigBEF+x/SNKnX4xkDjnClBSxp9TnQtcniL2IgwkPwvo4tAlp+T9d4NHNICcEwrNRe0VUqAVZ2dxq7G7Z7uaarT19YE/vfGVrtz+3xoMv7PJcxa5duiCLLKs8NWvlmXmrynUuTGmNzaPE6rys77R7PnWXKy+ZpDwu5BsnPA9eq5+HP8Vi8xw68YShxAlSeIVEBgMKAM6C/0QYpPsVnaK6HYicjDLDn0X5WJ81tNar16y5s2vra6thp3vlrmV2HtqFmZJdXl6y+YuXLS/Fy8iSZGR5O3LzsL68lRV3mal7qFWqypM9xVs4gjGEimROF9JHP/EbYT8ie+lJdU4Jjw/aHfoS7vVofyJN2iX5u0cki9xTwKWu7+74U4Pak7vWfnjDCp1dmyrmbWZeZNakmJ+es6K8nIzWvrjoGcm1y7fa5EmxnBlMGwM5+Hv4SZ0DacejYoOsSXI6YYJRvGIiHx40MhBZcQ0sY8tg4z5mROau1nROak/rWVPWZFsWefX+5zZXLdjyhSWbWbwgV1DE5TVKXvpINlpaWqe7EFQoPzOL2vMbUsOICn9YHDX/0bAfkYM7DVxCIXoAxrmm7FH4a7Qp5DpNeT5blt14JM/nkTVru7Z48YpvXvl3giGvrC9f3mBPw9fkKts3qiRT96JS4NnwBMeHU0FkGhgbmd78gGuurhy7ch6lgE5sHbu8i9xpWKu1JWXViiwfXgvNaI3GN5F6Wku7ay/CsV4LJck2KG+0yMM6flqI7C0PJ4fAfmtMf7FEIcJ/R1tkzjVrmk1byiA5IUv2LzQh8mUY3trwzUlCvw3JRh9yTZc3IfKx4tQR2Y8p3SMarRCKEsmN4mAF2rzdxMv+yc/BdNpYGwgbyBt2McM1dBoiRww9wTg1RD5avftvFgUyx+vunHdlWVsty0kwvB7K1w/Dd8ez4SueSJ78ieAGJXOFQUrJdkLkY8Wpcq3TDXUlkdJwHCiM4mRy5cMO8IJCx3LFguUV2Mxpai3dbKKMCXmVv69Sus2/5hiioRiHn4XoofFiFZV9Ard0KXgrvwGR0/G0NfZHVSod+fGqp78WmpcllhdEOi5SC5In97DsDm3hgzEiEssLk8NBE8gER8epIbIj1dKoBm5QBRTDL6cuYG1RJlQJZUTt+HJBfDPIXzhRKnfGe9HZWMQ3w4sl8gC0PCWYI9Z7GEJFGXtNPKh3GQWpuWyJOYmTdqQmgShNz8l9EwK/ELwsbfvGcMuZCk7QGJI8QKf9APz/odLCmrckedee/4eKLzj4c1aZDgJutn9ZQ0p2+tTsxbc4Lc9QHRRmWgxHnwZx9eOAJAMUiBuC/wD9hMQvDKeCyFE/UIM9QenoURqepIseUDiUSLFBSO6VYkFk+YqKKyRru9OH2O4X0/5BqYmgXXgMSAj+/0ArbRAkZcnU3xHwvPwjMsGLwqlwrfs6k8QjAlHDEZ84xkOWQNpgHIj73cm1cDUp0ZXP72Jn1dd9x4HT4ewczkq6ZP0T+xvRl7/H01OkPpVICF+KiakTvCicGtc6Yoi8+yJokecVOcN/08m3aMKamLS+phEivNBTJ5KXgJSMUiA1XBGJk0d54XFeeHfa38ibUPil4PRobVof9otHpMiJIg0UTp/9azE1qhqfsbBxhR4F3/T+k4a0hAZ9G5zzybvd4Rj2GvgbXJ/gxeLU7FqnDedYpFxrHMA03Onz+9MKlVKw/iObwSZOCGmk8p8hPM8GVHCyddStaYsb4oNzZB5s8qgs90f6sdcEh8epsciBoPvggGtuEZyohKhoMaSBAkUlGqdMo/nPL6K95fFe+kkC62H/JU0Fjx+RxBM8P06Pay2MI3OwCqMIGaOy8RfS0iENleDJlHRcm11nH6MSJYRVciDwhMQvD6eKyMCJmwppuCJJd1ir8fz40F8idwJPlG6C04tTR+QJJphgLyZEHgIWfJwVP6Rln2CCV4QJkffAHfSRMCHyBCcbEyJPMMEZwITIE0xwBjAh8gQTnAGcWyLH/ztpggnOAs4lkSHwKJHTryqSPi6MA+n+dcj4feZ9XnkcLWtcOA2I/Tst7X1RSI/1SZDJ6fqFkAOwH4HGAYG3223/HwzT/29zTN9vQMgLYeMkQCBeLpf9fzlsNptDE0S6HH6VkpBuZ7pe4oSX/VtW6fY8C+QtFAouoyi/iHRfzzqQA32P48+YIQ/GN07oLxvnlshR6JHInDMY48B1fqMqDhznHGPc/69ilRPvp9w0OclH+XHQ04iTA9fT97wsHKUu8tLe7e1t/+9kHj165Omzs7N27do1n8zOExizer1uDx8+9CP/DfBrr732SuRwbokcSUiAgBsbG7a5ubmHaIA0rG4MKDOD2Gq1/N7d3V2r1WpeJtcYUAaT/6qmUql4Hqx1o9HwAec81j83N+dEoE2RyOAo/fkmOGo95F9dXbWvv/7a/vZv/9bTXn/9dftH/+gfeV/OAxinOPZMaH/3d3/nk9vCwsIrk8O5tsiAwXjy5In98pe/tA8//NDJHK9FQE5I+cd//Mf2j//xP3Zicx95v/jiC7/v888/75Nzenravvvd79pv//Zv27e+9S0vT3K2r776yn7zm994fRAakv/oRz+y3/md37Hl5WU/p66Il0Hmo9RBXlzrp0+fej/+23/7b963d9991/7Nv/k3duHChSTn2QbjHCdmrPF//+//3Yl89epV+9f/+l+/Ejmcy80uFBIycmRQGBCszL1792zl6YqtrqwOhZWVFXv8+LFbXe7h+OWXX9pf/dVf2V/+5V/aRx995G4mszOWnbJu3rzpCk/ZkBiy/83f/I0TnnOuYdU+/OBDn9HJv76+7sRgogHxeJJA+2Kgb3gjBOR4XhD1BzChY52Rx6vEuSQyiESOZHF3t9N1N5eZ9e2337a333nb3nnnHXv7rbft+vXr7jKhsBAV8kJkLBP3sjbC+n7729+2N998s/+7zwwyE8GdO3d8osDlZj1JHiz3o8eP7INffmC3bt3ySQCFoF2A+2kfsz8zPgHyxDaTF8u+s7Pj6ZxzLdYbScY10gi0lXtI5z7KZGIiP/fGujknH9eo3+vZDvmJU1aU37h6yUf5XCM93VaubW1teb64QQgoI9ZFvRxjO4nTdvKkwXlsK/2MljLWM9q/9P1RFjEf91AfedNtIk6I+clHmVE2yIHxJqRBfvLQ11hH7HOUGUjLhrxRNukxHW37KM6law3Iz+AgMCzkX/zFX7h7/cYbb7hLjGtMnkh4BgWS4/p+8MEH9pOf/MRdZcj7/e9/3wkM0cnLoGCdyU8gDlGZAMg/Pz/v5f3617+2X/7il/b4yWP7p//0n7qL/dZbb3kdUYEAEwCBQb1y5YpPKqzVKQ9PgIFnfRbdcxQRt//+/fve/jg5USbKhDcQlRvMzMzY4uKiXbx40Sca6okeBspE2U4oEXl6ZtqvR5eSNuJa/9t/+2+9HOpFnuRnrwA50lbqw6thsiIe611aWnJXlDyUS5u5TrkQgziKj8xoI8e4/IgyYqIkkB/Xn/ToDTEejAt9ox+cx/vxgOgH9yIn0mkHciQvy6lIasYLopEXuZNOftLYK6AuxgXXmjGKbaA/sW2x/EuXLnmb+D+maS9yTssbcA3Z0Gfuod2A/DGexoTIKSJDUAj5R3/0R04qFIsBJpCXwWEQ/+zP/sw++eQTH0zWzd/73vfcIiNk8qF4lMvAoczkg2wcURLIggIwcfz1X/+1W+t/+S//pf3Wb/2WKwOgLgJwwisvdTNp/L2/9/ecnDdu3LBf/epXTnLu4xqeBPlYu9MfFIE+MUGhULjz9BdCMeHQN5QWL+G9996zy5cve7s//fRT++yzz1zBUKjarixQveaEIA/40z/9U+8v5f+7f/fvvH8sOT7++GNXXNpEn6iHNjLx0Qb6jmwhJXIjT1T+n/70p/2JAHky8UAiJgQC/aB9gLpRfNpKQO6A/PSPa/SPeugbgckDMOHgTdEm6uMe6kOubN5FmdEP+gXpqQP5QX7azziiR4wfZGOSZhyZmBhvxowxgtCAdjM54I3h6SFz6qUNLLkol34jB/L98Ic/dKPCGNI2QH/G4aX9R+cvGs9LZASJsjBAzJ7MhCg2RwaPaygig8A9KMCPf/xjHyiU+vd///d9QKJFoTyA4CExR66hQCgUFpN6uZ91cbS0v/u7v+tWkwHkOqA+BhVr/slvPnFicT/5UCJI87Of/cwVEmVDCWkL5PvFL37hloL6SaMs7n///fdd8bCOWABIz+YbR/JQP+1GseIGIG1dW19zJQPUQx7Ko+3IC6tMveSnPbSPdrJ8oP2kM7mQJ+4jEJAv5UWCQWTuhwDUCwkgPpMJk2B6Iwk50SYm1Uga5Mk91MGkQT8hCO3hXuqhXPIin9imKAsC4w6ByYu8o37ghdFnyiONQFnkZ4xpX9zcvHv3rk/ScckU81E+55RL+ZTFRM2kS5xrlMuRPjOpIB/aT5vi5D6Kc01khJImMsRi4BlkBPvzn//cFR+lhtgMFoQhjcHCRWLgEDRCRrE4InQIFC15DIA0LAf1sFFG3VguPAAUDYKQl/bF+5lIdnd27fbt2040BhiC+C74x4HEKAZpzPZMSJABBcVbwOKh1KRRBlbwH/yDf+DeBH2AKCgchGZy4jqEIA0Fxzr9/b//9+2f/JN/4lYC4jKhxZ166qV+zlF0LAheA9YEqwhZkC+KzoRFvXgP3EPdlEHfmeiYnGgHIC8TJW3FmjIxMA5xrLkP+dHWaMXJgyx5DAQJGAfkgNzoK/2jX2ww0l7a9A//4T/0vpGfsiEU40tdeB+QEl2gbZzjsdEHPARcZNrAmDMupEFWJhfGgTLJTx+IM75MpJTNveShXORMX1li/bN/9s9cr/AIkAl6F72Q/Yh8bje7xgHFQLEYCAaTAURJiJOOUka3mQkgujmRdPGccggInbSoeNxDOQwcigGZIQVkQ/lRBvLHwYrloSBvvf2WE4Y2YHEI7Kg3mg1fV6OoMR0iMKOjKNyL0kBklIWJBkWHZFhRSB4V3stU35k4AO0gHXedvChWtLIRtIf6sIjICitD+d/5znd8gqPPtAUyQWbcbiZClgRMmMggWqHoGqPslEN9KDT9i5McBGPiQr5R7hG0i0kIeUYiQFTyUjb30R4mIfpJeeTnESATBfcxaUUrTJvJjzWlj9SHd8NkRj7cY2SHfNNjjxwZY/QG40Bfo+eEjNCf2AfqgqTsBZAfeSB/Jhzajhyol36Tfz8MpDCBDwaDggBRAgYNxWUWhihcj8oQQxQu1+KsSTr5IpFjOkrPYMU1L+nUg9KjhDFfJD73EyAkbWF2ZkBRFGZy3F3uQQmZECAqlgmlQxlYd0IAyoMsKAv9i2t6lARFpGxIR5uZaFC0OJlAZGTAhIBl4JzJgHopF4JEaw9BqBNiUCZ9jxMfbiWWEJcfT4RHcSg79VEOckQ+1Ev5yIM66TNtpl4Q5U8+7iM9yiuOHR4OfWPMSCMv5XNEfnFCRmb0jUA9jDNyiXJGZtSH3OgD5VE++SgfmZGXCSH2gUBfMQLIBa8JF/7P//zPffJm3Ggz99BPvATK5Bz5sATBG2QSoY3IObafsB8mRE4BRWWm/Vf/6l/Zf/gP/8H+03/6T/Yf/+N/tH//7/+9/eAHP3CricAZQAYOJWTAI6lR3DhIUbk4ElAIBpY1IJsm3If7iUVkMBksFIx8UWkZSNIplzJRGgaTyQD3DLKi7FgGjtyPAkVrQ19iOvWhOKRHheCcsvEEosJTP/WSPyI9YZGH9pE/3s81lJ1z2ogc6TP3URZHrkFu5Ph7v/d7foTwBCwupEJpYz3cTxs4J841QuxDnEioP7abEOXFkXs5cg+gvNgu8mINuZYeO9pO4DzKIo5L7DP5KTe2i/Q4ZrEurpPOJMFEjRUn0G/cb8hL/UykeDB/+Id/6JM69WHB/+t//a9O/jjZRVlQ7jhMiJwCg4dwUca4O0uI1ohBQumxcuTFDYqbJQxABHGsI7M4A4BrxoDgUjLrYm1Y/6HEDDSKiSJE5QQcY5wB5DqWhnZQL+VBZCYB2oe1oC4IHokMcWgrfeI65dEW8mBtAOcE2kz9lE9++hcD98VjRGwf6SgsdXFO2XF3Oio7oGyUF0Vmffkv/sW/sH/+z/+5r08hMjJHvpRHXkKsP9adrjOWC2LaaL4YYlkxL7Ih4EHEvkNOCMO4kU7bkRn5GHOOuNvxOiBPnBQIxBkr+oEMkSV9Zj+APvNWIHsNrIXpM3JjDDEM5OEaR+6hLegKyw/GlfEn0P5xONdEjgMdwSAgWFxTNoVQSgLrGkLc1IB8DDKDyoshbGxgCXGbyMc9EA0XmNkcouNOs8FCnHuZiRloysTCQqw4GTBwAAUEKAzKwUYWLl10U2kvrizloTjkpyyUk3MUAi+CiSOuwbmGR0D7aCuk40g6+XDjKY+ykM0oQWJ7aGNsF22KywPkgEWhfciSPqKwHCEDSov86AsyiG4qbaPOSLrRug8CeWhHnAxj2rhAWbGfyJylCG1mvCENgXGjPCZz5Ii3gPyQEXlZ63NfDJRDX6NMKB/Z01/6zSTFJEy/Sadc0uJ4MTHQfyZl8nGkL9SHLlLms4g82bXWLIrAGBwC1gzFZlOGtQ1KyfoPwjIwrKEQOtaWAYeYEJfdWta9rG/Iy44ohEAJWPdAZDY+GHCsFQrDjvPP3v+Zrxupk4HCgkaFiIG2MugQIu5y4sriimHhUA6UCUtNe1AeruGyobDcT5lxbU0eyqBN9A8y0y7IiJdAebQHMjLR4P5HpWbywFpQFnJBflz7gz/4Ayck7UIe0RVFKUmjbdRNmUx83Eu/OVIe7YTkyJGJCiKxYUU6co8kTAPZMPlRLoRAfhCBwD2UG70XykEmtIdymGAhL/dSZxwjxoX2sizBayI/baHfXKM8+sAYM9boCWRmfJADFhUiA/QJIkJ++kz5PEZEN5Ab7aVM0tkMow20lfIYI3SBdjDhoUuxHfR7FBPXOgWExCBGixxDnLEhPCRhZkXhUV6UA8Gi+DEfyoGyIHiuQRIUjvIjEVAI8nMfSsgRBYZwaesR4ww6RIFk1M+MzkBzDsFQ1OWLy65QEAJLzYQTgfvNphjkRtGwAtSJV8G9kJX+MFFRH22PgbrT59RB2zhSB+1CidnZRpGREX1jYmNipI3Ui/uNAnONSQ1lZUKEdNRBmRzjeTpwbT9E+dC2KLe07GhnDLQXL4ANP3bu4yYhbWGC5T7SWc8iQ9pCHvYhmDSRe9zMQh8gGGQnPU44yB/XmYmAuugjOnHv7j1/JRcdQw9oL7KnTtpAHtqBvnA/Y0I7mRDJgy6NIzE49xYZgSI4FA6CMTAoJoE4gxLjWCysBIpKelw7M3iUxaAgdI4oNYPPADNIWAAUCaWIZfK6I3lx28jHzAtJUcqokCAqI0faSpshL+2hHohJWqvZcgsKGdlQQcG4j7ahZOSjHs6pA6WmbvKidCgq55QF0SmLfExaca1Nm7C20SOhL1hA2kIe5MR9KCv5IANE5pieBMhHXdyL1eE6dUUyIRdkjbxo5zgFJo2JL7q29C/tmpIG2Rhb0qJ8aTN5aQN1MbmQhmyYbFjLIlfqjpMX40wgP3UiC+RMPsqmLwQe1VEueTnnXvLTB+qkTNoYvQPSuM5ET17OkReTCWNC+VEfAGMzDuf2FU2AIhAYSEiMco5TGMomRIIDJ44UFWWJu5oR5GUgGWwGgXLJl84TEctGwZkECHHQAO2JeYhDEMqjLMpHaVAAzrlGP6iTcqLixXJQmJiPI+fUBcmjonJOXtpLPcgGUqGItBGQhuLFTR/uRy7cyzXIw3XqJp32xTKRFXkA+Wkr/YjWjEmA69yLUkcl5v5RkMY40B/K5p7YD9pKG7gWJyRkEiejOH7x3gjuo820J/YXkJ985KcP1E2ZhNg22kmbuY/89CPmR9YxD/fQRupIlxvzcD/XaSvHCNo9Tg7g3BMZPM+9E5x8ML77Kr7G/LDjPlrGSdSXc79rPcHZBeOLBRwXjjL25E2Hk4hzv9l1UgdmggmOgsmu9QQTnAFMiDzBBGcAEyJPMMEZwITIE0xwBjAh8gQTnAFMiDzBBKceZv8//x38VEGun9QAAAAASUVORK5CYII=;" parent="1" vertex="1">
          <mxGeometry x="650" y="376.6" width="80" height="72.4" as="geometry" />
        </mxCell>
        <mxCell id="WM-I62e_hTdhwf-KRz4h-15" value="" style="outlineConnect=0;dashed=0;verticalLabelPosition=bottom;verticalAlign=top;align=center;shape=mxgraph.aws3.classic_load_balancer;fillColor=#F58534;gradientColor=none;html=1;" parent="1" vertex="1">
          <mxGeometry x="396" y="496.86" width="69" height="71.64" as="geometry" />
        </mxCell>
        <mxCell id="WM-I62e_hTdhwf-KRz4h-17" value="Load Balancer" style="text;html=1;align=center;verticalAlign=middle;resizable=0;points=[];autosize=1;strokeColor=none;fillColor=none;" parent="1" vertex="1">
          <mxGeometry x="380.5" y="568.5000000000001" width="100" height="30" as="geometry" />
        </mxCell>
        <mxCell id="WM-I62e_hTdhwf-KRz4h-21" value="Admin/&lt;br&gt;DevOps" style="text;html=1;strokeColor=none;fillColor=none;align=center;verticalAlign=middle;whiteSpace=wrap;rounded=0;" parent="1" vertex="1">
          <mxGeometry x="70" y="455" width="60" height="30" as="geometry" />
        </mxCell>
        <mxCell id="WM-I62e_hTdhwf-KRz4h-23" value="IAC/&lt;br&gt;UI/&lt;br&gt;CLI" style="text;html=1;strokeColor=none;fillColor=none;align=center;verticalAlign=middle;whiteSpace=wrap;rounded=0;" parent="1" vertex="1">
          <mxGeometry x="205" y="335" width="70" height="50" as="geometry" />
        </mxCell>
        <mxCell id="WM-I62e_hTdhwf-KRz4h-24" value="Access/&lt;br&gt;Keys" style="text;html=1;strokeColor=none;fillColor=none;align=center;verticalAlign=middle;whiteSpace=wrap;rounded=0;" parent="1" vertex="1">
          <mxGeometry x="300" y="455" width="60" height="30" as="geometry" />
        </mxCell>
        <mxCell id="WM-I62e_hTdhwf-KRz4h-25" value="" style="outlineConnect=0;dashed=0;verticalLabelPosition=bottom;verticalAlign=top;align=center;html=1;shape=mxgraph.aws3.iam;fillColor=#759C3E;gradientColor=none;" parent="1" vertex="1">
          <mxGeometry x="300" y="368" width="42" height="81" as="geometry" />
        </mxCell>
        <mxCell id="WM-I62e_hTdhwf-KRz4h-26" value="" style="rounded=0;whiteSpace=wrap;html=1;dashed=1;fillColor=none;strokeColor=#FF8000;" parent="1" vertex="1">
          <mxGeometry x="480" y="240.5" width="40" height="120" as="geometry" />
        </mxCell>
        <mxCell id="WM-I62e_hTdhwf-KRz4h-28" value="" style="rounded=0;whiteSpace=wrap;html=1;dashed=1;fillColor=none;strokeColor=#FF8000;" parent="1" vertex="1">
          <mxGeometry x="540" y="240.5" width="40" height="120" as="geometry" />
        </mxCell>
        <mxCell id="bd7c89o2SvT_LgplBblb-10" value="" style="edgeStyle=orthogonalEdgeStyle;rounded=0;orthogonalLoop=1;jettySize=auto;html=1;" edge="1" parent="1" source="WM-I62e_hTdhwf-KRz4h-29" target="bd7c89o2SvT_LgplBblb-4">
          <mxGeometry relative="1" as="geometry" />
        </mxCell>
        <mxCell id="WM-I62e_hTdhwf-KRz4h-29" value="" style="rounded=0;whiteSpace=wrap;html=1;dashed=1;fillColor=none;strokeColor=#FF8000;" parent="1" vertex="1">
          <mxGeometry x="600" y="240.5" width="40" height="120" as="geometry" />
        </mxCell>
        <mxCell id="WM-I62e_hTdhwf-KRz4h-30" value="AZ 1" style="text;html=1;strokeColor=none;fillColor=none;align=center;verticalAlign=middle;whiteSpace=wrap;rounded=0;fontSize=9;" parent="1" vertex="1">
          <mxGeometry x="480" y="230.5" width="40" height="10" as="geometry" />
        </mxCell>
        <mxCell id="WM-I62e_hTdhwf-KRz4h-31" value="AZ 2" style="text;html=1;strokeColor=none;fillColor=none;align=center;verticalAlign=middle;whiteSpace=wrap;rounded=0;fontSize=9;" parent="1" vertex="1">
          <mxGeometry x="540" y="230.5" width="40" height="10" as="geometry" />
        </mxCell>
        <mxCell id="WM-I62e_hTdhwf-KRz4h-32" value="AZ 3" style="text;html=1;strokeColor=none;fillColor=none;align=center;verticalAlign=middle;whiteSpace=wrap;rounded=0;fontSize=9;" parent="1" vertex="1">
          <mxGeometry x="600" y="220.5" width="40" height="10" as="geometry" />
        </mxCell>
        <mxCell id="WM-I62e_hTdhwf-KRz4h-33" value="" style="outlineConnect=0;dashed=0;verticalLabelPosition=bottom;verticalAlign=top;align=center;html=1;shape=mxgraph.aws3.internet_gateway;fillColor=#F58534;gradientColor=none;" parent="1" vertex="1">
          <mxGeometry x="805" y="240.5" width="24.5" height="22" as="geometry" />
        </mxCell>
        <mxCell id="WM-I62e_hTdhwf-KRz4h-34" value="" style="outlineConnect=0;dashed=0;verticalLabelPosition=bottom;verticalAlign=top;align=center;html=1;shape=mxgraph.aws3.route_table;fillColor=#F58536;gradientColor=none;" parent="1" vertex="1">
          <mxGeometry x="680" y="291" width="40" height="19" as="geometry" />
        </mxCell>
        <mxCell id="WM-I62e_hTdhwf-KRz4h-35" style="edgeStyle=orthogonalEdgeStyle;rounded=0;orthogonalLoop=1;jettySize=auto;html=1;entryX=0;entryY=0.5;entryDx=0;entryDy=0;entryPerimeter=0;" parent="1" source="WM-I62e_hTdhwf-KRz4h-34" target="WM-I62e_hTdhwf-KRz4h-33" edge="1">
          <mxGeometry relative="1" as="geometry" />
        </mxCell>
        <mxCell id="WM-I62e_hTdhwf-KRz4h-39" value="" style="rounded=1;arcSize=10;dashed=0;fillColor=none;gradientColor=none;strokeWidth=2;" parent="1" vertex="1">
          <mxGeometry x="480" y="320" width="40" height="24.5" as="geometry" />
        </mxCell>
        <mxCell id="WM-I62e_hTdhwf-KRz4h-40" value="" style="dashed=0;html=1;shape=mxgraph.aws3.permissions;fillColor=#D9A741;gradientColor=none;dashed=0;" parent="1" vertex="1">
          <mxGeometry x="477" y="320" width="20" height="15" as="geometry" />
        </mxCell>
        <mxCell id="WM-I62e_hTdhwf-KRz4h-41" value="" style="rounded=1;arcSize=10;dashed=0;fillColor=none;gradientColor=none;strokeWidth=2;" parent="1" vertex="1">
          <mxGeometry x="540" y="320" width="40" height="24.5" as="geometry" />
        </mxCell>
        <mxCell id="WM-I62e_hTdhwf-KRz4h-42" value="" style="dashed=0;html=1;shape=mxgraph.aws3.permissions;fillColor=#D9A741;gradientColor=none;dashed=0;" parent="1" vertex="1">
          <mxGeometry x="537" y="320" width="20" height="15" as="geometry" />
        </mxCell>
        <mxCell id="WM-I62e_hTdhwf-KRz4h-43" value="" style="rounded=1;arcSize=10;dashed=0;fillColor=none;gradientColor=none;strokeWidth=2;" parent="1" vertex="1">
          <mxGeometry x="600" y="320" width="40" height="24.5" as="geometry" />
        </mxCell>
        <mxCell id="WM-I62e_hTdhwf-KRz4h-44" value="" style="dashed=0;html=1;shape=mxgraph.aws3.permissions;fillColor=#D9A741;gradientColor=none;dashed=0;" parent="1" vertex="1">
          <mxGeometry x="597" y="320" width="20" height="15" as="geometry" />
        </mxCell>
        <mxCell id="WM-I62e_hTdhwf-KRz4h-46" style="edgeStyle=orthogonalEdgeStyle;rounded=0;orthogonalLoop=1;jettySize=auto;html=1;exitX=1;exitY=0.5;exitDx=0;exitDy=0;" parent="1" source="WM-I62e_hTdhwf-KRz4h-45" target="WM-I62e_hTdhwf-KRz4h-34" edge="1">
          <mxGeometry relative="1" as="geometry" />
        </mxCell>
        <mxCell id="WM-I62e_hTdhwf-KRz4h-45" value="" style="rounded=0;whiteSpace=wrap;html=1;strokeColor=default;fillColor=none;" parent="1" vertex="1">
          <mxGeometry x="477" y="310" width="173" height="40" as="geometry" />
        </mxCell>
        <mxCell id="WM-I62e_hTdhwf-KRz4h-47" value="&lt;font style=&quot;font-size: 10px;&quot;&gt;Public rtb&lt;/font&gt;" style="text;html=1;strokeColor=none;fillColor=none;align=center;verticalAlign=middle;whiteSpace=wrap;rounded=0;" parent="1" vertex="1">
          <mxGeometry x="670" y="310" width="60" height="15" as="geometry" />
        </mxCell>
        <mxCell id="WM-I62e_hTdhwf-KRz4h-48" value="" style="rounded=1;arcSize=10;dashed=0;fillColor=none;gradientColor=none;strokeWidth=2;" parent="1" vertex="1">
          <mxGeometry x="479.5" y="272.5" width="41" height="30" as="geometry" />
        </mxCell>
        <mxCell id="WM-I62e_hTdhwf-KRz4h-49" value="" style="dashed=0;html=1;shape=mxgraph.aws3.permissions;fillColor=#D9A741;gradientColor=none;dashed=0;" parent="1" vertex="1">
          <mxGeometry x="479.5" y="272.5" width="20" height="15" as="geometry" />
        </mxCell>
        <mxCell id="WM-I62e_hTdhwf-KRz4h-50" value="" style="rounded=1;arcSize=10;dashed=0;fillColor=none;gradientColor=none;strokeWidth=2;" parent="1" vertex="1">
          <mxGeometry x="539" y="272.5" width="41" height="30" as="geometry" />
        </mxCell>
        <mxCell id="WM-I62e_hTdhwf-KRz4h-51" value="" style="dashed=0;html=1;shape=mxgraph.aws3.permissions;fillColor=#D9A741;gradientColor=none;dashed=0;" parent="1" vertex="1">
          <mxGeometry x="539" y="272.5" width="20" height="15" as="geometry" />
        </mxCell>
        <mxCell id="WM-I62e_hTdhwf-KRz4h-52" value="" style="rounded=1;arcSize=10;dashed=0;fillColor=none;gradientColor=none;strokeWidth=2;" parent="1" vertex="1">
          <mxGeometry x="599" y="272.5" width="41" height="30" as="geometry" />
        </mxCell>
        <mxCell id="WM-I62e_hTdhwf-KRz4h-53" value="" style="dashed=0;html=1;shape=mxgraph.aws3.permissions;fillColor=#D9A741;gradientColor=none;dashed=0;" parent="1" vertex="1">
          <mxGeometry x="599" y="272.5" width="20" height="20" as="geometry" />
        </mxCell>
        <mxCell id="WM-I62e_hTdhwf-KRz4h-55" value="" style="outlineConnect=0;dashed=0;verticalLabelPosition=bottom;verticalAlign=top;align=center;html=1;shape=mxgraph.aws3.route_table;fillColor=#F58536;gradientColor=none;" parent="1" vertex="1">
          <mxGeometry x="650" y="253.5" width="40" height="19" as="geometry" />
        </mxCell>
        <mxCell id="WM-I62e_hTdhwf-KRz4h-60" style="edgeStyle=orthogonalEdgeStyle;rounded=0;orthogonalLoop=1;jettySize=auto;html=1;entryX=0.5;entryY=1;entryDx=0;entryDy=0;entryPerimeter=0;" parent="1" source="WM-I62e_hTdhwf-KRz4h-52" target="WM-I62e_hTdhwf-KRz4h-55" edge="1">
          <mxGeometry relative="1" as="geometry" />
        </mxCell>
        <mxCell id="WM-I62e_hTdhwf-KRz4h-61" value="" style="outlineConnect=0;dashed=0;verticalLabelPosition=bottom;verticalAlign=top;align=center;html=1;shape=mxgraph.aws3.route_table;fillColor=#F58536;gradientColor=none;" parent="1" vertex="1">
          <mxGeometry x="650" y="226" width="40" height="19" as="geometry" />
        </mxCell>
        <mxCell id="bd7c89o2SvT_LgplBblb-4" value="" style="outlineConnect=0;dashed=0;verticalLabelPosition=bottom;verticalAlign=top;align=center;html=1;shape=mxgraph.aws3.route_table;fillColor=#F58536;gradientColor=none;" vertex="1" parent="1">
          <mxGeometry x="650" y="200" width="40" height="19" as="geometry" />
        </mxCell>
        <mxCell id="bd7c89o2SvT_LgplBblb-7" style="edgeStyle=orthogonalEdgeStyle;rounded=0;orthogonalLoop=1;jettySize=auto;html=1;entryX=0;entryY=0.5;entryDx=0;entryDy=0;entryPerimeter=0;" edge="1" parent="1" source="WM-I62e_hTdhwf-KRz4h-48" target="bd7c89o2SvT_LgplBblb-4">
          <mxGeometry relative="1" as="geometry">
            <Array as="points">
              <mxPoint x="530" y="288" />
              <mxPoint x="530" y="210" />
            </Array>
          </mxGeometry>
        </mxCell>
        <mxCell id="bd7c89o2SvT_LgplBblb-9" style="edgeStyle=orthogonalEdgeStyle;rounded=0;orthogonalLoop=1;jettySize=auto;html=1;entryX=0;entryY=0.5;entryDx=0;entryDy=0;entryPerimeter=0;" edge="1" parent="1" source="WM-I62e_hTdhwf-KRz4h-50" target="WM-I62e_hTdhwf-KRz4h-61">
          <mxGeometry relative="1" as="geometry">
            <Array as="points">
              <mxPoint x="590" y="288" />
              <mxPoint x="590" y="236" />
              <mxPoint x="650" y="236" />
            </Array>
          </mxGeometry>
        </mxCell>
        <mxCell id="bd7c89o2SvT_LgplBblb-11" value="" style="sketch=0;points=[[0,0,0],[0.25,0,0],[0.5,0,0],[0.75,0,0],[1,0,0],[0,1,0],[0.25,1,0],[0.5,1,0],[0.75,1,0],[1,1,0],[0,0.25,0],[0,0.5,0],[0,0.75,0],[1,0.25,0],[1,0.5,0],[1,0.75,0]];outlineConnect=0;fontColor=#232F3E;fillColor=#ED7100;strokeColor=#ffffff;dashed=0;verticalLabelPosition=bottom;verticalAlign=top;align=center;html=1;fontSize=12;fontStyle=0;aspect=fixed;shape=mxgraph.aws4.resourceIcon;resIcon=mxgraph.aws4.eks_cloud;" vertex="1" parent="1">
          <mxGeometry x="448" y="390" width="40" height="40" as="geometry" />
        </mxCell>
        <mxCell id="bd7c89o2SvT_LgplBblb-16" value="region" style="text;html=1;strokeColor=none;fillColor=none;align=center;verticalAlign=middle;whiteSpace=wrap;rounded=0;" vertex="1" parent="1">
          <mxGeometry x="370" y="199" width="60" height="20" as="geometry" />
        </mxCell>
        <mxCell id="bd7c89o2SvT_LgplBblb-17" value="public&lt;br style=&quot;font-size: 10px;&quot;&gt;subnet" style="text;html=1;strokeColor=none;fillColor=none;align=center;verticalAlign=middle;whiteSpace=wrap;rounded=0;fontSize=10;" vertex="1" parent="1">
          <mxGeometry x="525.5" y="317.25" width="60" height="30" as="geometry" />
        </mxCell>
        <mxCell id="bd7c89o2SvT_LgplBblb-18" value="public&lt;br style=&quot;font-size: 10px;&quot;&gt;subnet" style="text;html=1;strokeColor=none;fillColor=none;align=center;verticalAlign=middle;whiteSpace=wrap;rounded=0;fontSize=10;" vertex="1" parent="1">
          <mxGeometry x="470" y="317.25" width="60" height="30" as="geometry" />
        </mxCell>
        <mxCell id="bd7c89o2SvT_LgplBblb-19" value="public&lt;br style=&quot;font-size: 10px;&quot;&gt;subnet" style="text;html=1;strokeColor=none;fillColor=none;align=center;verticalAlign=middle;whiteSpace=wrap;rounded=0;fontSize=10;" vertex="1" parent="1">
          <mxGeometry x="585.5" y="317.25" width="60" height="30" as="geometry" />
        </mxCell>
        <mxCell id="bd7c89o2SvT_LgplBblb-20" value="&lt;font style=&quot;font-size: 10px;&quot;&gt;private&lt;br&gt;subnet&lt;/font&gt;" style="text;html=1;strokeColor=none;fillColor=none;align=center;verticalAlign=middle;whiteSpace=wrap;rounded=0;" vertex="1" parent="1">
          <mxGeometry x="470" y="277.5" width="60" height="20" as="geometry" />
        </mxCell>
        <mxCell id="bd7c89o2SvT_LgplBblb-21" value="&lt;font style=&quot;font-size: 10px;&quot;&gt;private&lt;br&gt;subnet&lt;/font&gt;" style="text;html=1;strokeColor=none;fillColor=none;align=center;verticalAlign=middle;whiteSpace=wrap;rounded=0;" vertex="1" parent="1">
          <mxGeometry x="525.5" y="277.5" width="60" height="20" as="geometry" />
        </mxCell>
        <mxCell id="bd7c89o2SvT_LgplBblb-22" value="&lt;font style=&quot;font-size: 10px;&quot;&gt;private&lt;br&gt;subnet&lt;/font&gt;" style="text;html=1;strokeColor=none;fillColor=none;align=center;verticalAlign=middle;whiteSpace=wrap;rounded=0;" vertex="1" parent="1">
          <mxGeometry x="585.5" y="277.5" width="60" height="20" as="geometry" />
        </mxCell>
        <mxCell id="bd7c89o2SvT_LgplBblb-23" value="" style="outlineConnect=0;dashed=0;verticalLabelPosition=bottom;verticalAlign=top;align=center;html=1;shape=mxgraph.aws3.role;fillColor=#759C3E;gradientColor=none;" vertex="1" parent="1">
          <mxGeometry x="609.5" y="548.5" width="80.5" height="50" as="geometry" />
        </mxCell>
        <mxCell id="bd7c89o2SvT_LgplBblb-24" value="" style="sketch=0;outlineConnect=0;fontColor=#232F3E;gradientColor=none;fillColor=#7AA116;strokeColor=none;dashed=0;verticalLabelPosition=bottom;verticalAlign=top;align=center;html=1;fontSize=12;fontStyle=0;aspect=fixed;pointerEvents=1;shape=mxgraph.aws4.policy;" vertex="1" parent="1">
          <mxGeometry x="720" y="531.5" width="78" height="67" as="geometry" />
        </mxCell>
        <mxCell id="bd7c89o2SvT_LgplBblb-31" style="edgeStyle=orthogonalEdgeStyle;rounded=0;orthogonalLoop=1;jettySize=auto;html=1;" edge="1" parent="1" source="WM-I62e_hTdhwf-KRz4h-12" target="bd7c89o2SvT_LgplBblb-25">
          <mxGeometry relative="1" as="geometry">
            <Array as="points">
              <mxPoint x="780" y="326" />
              <mxPoint x="780" y="330" />
              <mxPoint x="810" y="330" />
            </Array>
          </mxGeometry>
        </mxCell>
        <mxCell id="bd7c89o2SvT_LgplBblb-25" value="" style="outlineConnect=0;dashed=0;verticalLabelPosition=bottom;verticalAlign=top;align=center;html=1;shape=mxgraph.aws3.vpc_nat_gateway;fillColor=#F58534;gradientColor=none;" vertex="1" parent="1">
          <mxGeometry x="796" y="350" width="54.5" height="49.5" as="geometry" />
        </mxCell>
        <mxCell id="bd7c89o2SvT_LgplBblb-28" value="NAT" style="text;html=1;strokeColor=none;fillColor=none;align=center;verticalAlign=middle;whiteSpace=wrap;rounded=0;" vertex="1" parent="1">
          <mxGeometry x="790.5" y="399.5" width="60" height="30" as="geometry" />
        </mxCell>
        <mxCell id="bd7c89o2SvT_LgplBblb-32" value="roles" style="text;html=1;strokeColor=none;fillColor=none;align=center;verticalAlign=middle;whiteSpace=wrap;rounded=0;" vertex="1" parent="1">
          <mxGeometry x="580" y="531.5" width="60" height="30" as="geometry" />
        </mxCell>
        <mxCell id="bd7c89o2SvT_LgplBblb-33" value="policy" style="text;html=1;strokeColor=none;fillColor=none;align=center;verticalAlign=middle;whiteSpace=wrap;rounded=0;" vertex="1" parent="1">
          <mxGeometry x="720" y="598.5" width="60" height="30" as="geometry" />
        </mxCell>
      </root>
    </mxGraphModel>
  </diagram>
</mxfile>
